<mxfile host="65bd71144e">
    <diagram id="fWQ72hpJl6RM2eO6XJVP" name="Page-1">
        <mxGraphModel dx="1075" dy="787" grid="1" gridSize="10" guides="1" tooltips="1" connect="1" arrows="1" fold="1" page="1" pageScale="1" pageWidth="850" pageHeight="1100" math="0" shadow="0">
            <root>
                <mxCell id="0"/>
                <mxCell id="1" parent="0"/>
                <mxCell id="15" value="Attribute" style="ellipse;whiteSpace=wrap;html=1;align=center;" parent="1" vertex="1">
                    <mxGeometry x="120" y="120" width="240" height="230" as="geometry"/>
                </mxCell>
                <mxCell id="16" value="Relationship" style="shape=rhombus;double=1;perimeter=rhombusPerimeter;whiteSpace=wrap;html=1;align=center;" parent="1" vertex="1">
                    <mxGeometry x="240" y="185" width="210" height="100" as="geometry"/>
                </mxCell>
                <mxCell id="17" value="Relationship" style="shape=rhombus;perimeter=rhombusPerimeter;whiteSpace=wrap;html=1;align=center;" parent="1" vertex="1">
                    <mxGeometry x="30" y="180" width="210" height="110" as="geometry"/>
                </mxCell>
                <mxCell id="18" value="Relationship" style="shape=rhombus;perimeter=rhombusPerimeter;whiteSpace=wrap;html=1;align=center;rotation=-90;" parent="1" vertex="1">
                    <mxGeometry x="135" y="283" width="210" height="110" as="geometry"/>
                </mxCell>
                <mxCell id="19" value="Relationship" style="shape=rhombus;perimeter=rhombusPerimeter;whiteSpace=wrap;html=1;align=center;rotation=90;" parent="1" vertex="1">
                    <mxGeometry x="135" y="78" width="210" height="110" as="geometry"/>
                </mxCell>
            </root>
        </mxGraphModel>
    </diagram>
    <diagram id="1dsEQ2S9Ub4Hi-u3z4ZF" name="개념">
        <mxGraphModel dx="1746" dy="656" grid="1" gridSize="10" guides="1" tooltips="1" connect="1" arrows="1" fold="1" page="1" pageScale="1" pageWidth="850" pageHeight="1100" math="0" shadow="0">
            <root>
                <mxCell id="0"/>
                <mxCell id="1" parent="0"/>
                <mxCell id="VYggWzacx-ng_1QBSq6n-1" value="개념적 설계&amp;nbsp;&lt;div&gt;ERD(Entity Relationship Diagram)&lt;/div&gt;&lt;div&gt;데이터베이스 설계의 이해도 높이기&lt;/div&gt;" style="whiteSpace=wrap;html=1;" vertex="1" parent="1">
                    <mxGeometry x="-90" y="40" width="220" height="130" as="geometry"/>
                </mxCell>
                <mxCell id="VYggWzacx-ng_1QBSq6n-2" value="데이터베이스 설계 단계&lt;div&gt;1.요구사항 분석 - 요구사항정의서&lt;/div&gt;&lt;div&gt;2.개념적 설계 - ERD&lt;/div&gt;&lt;div&gt;3.논리적설계 - 릴레이션 스키마&lt;/div&gt;&lt;div&gt;4.물리적설계 - 테이블 정의서, sql script 작성&lt;/div&gt;&lt;div&gt;5.구현 - 테이블 작성&lt;/div&gt;" style="whiteSpace=wrap;html=1;" vertex="1" parent="1">
                    <mxGeometry x="-90" y="190" width="220" height="140" as="geometry"/>
                </mxCell>
                <mxCell id="lb8rc-n-M9KOPGfd7o1K-1" value="entity = 객체 = 테이블 = 릴레이션" style="text;html=1;align=center;verticalAlign=middle;whiteSpace=wrap;rounded=0;" vertex="1" parent="1">
                    <mxGeometry x="20" y="360" width="270" height="60" as="geometry"/>
                </mxCell>
                <mxCell id="lb8rc-n-M9KOPGfd7o1K-2" value="Entity" style="whiteSpace=wrap;html=1;align=center;" vertex="1" parent="1">
                    <mxGeometry x="-50" y="370" width="100" height="40" as="geometry"/>
                </mxCell>
                <mxCell id="lb8rc-n-M9KOPGfd7o1K-3" value="Relationship" style="shape=rhombus;perimeter=rhombusPerimeter;whiteSpace=wrap;html=1;align=center;" vertex="1" parent="1">
                    <mxGeometry x="-60" y="430" width="120" height="60" as="geometry"/>
                </mxCell>
                <mxCell id="lb8rc-n-M9KOPGfd7o1K-4" value="관계" style="text;html=1;align=center;verticalAlign=middle;whiteSpace=wrap;rounded=0;" vertex="1" parent="1">
                    <mxGeometry x="-30" y="430" width="270" height="60" as="geometry"/>
                </mxCell>
                <mxCell id="lb8rc-n-M9KOPGfd7o1K-5" value="Attribute" style="ellipse;whiteSpace=wrap;html=1;align=center;" vertex="1" parent="1">
                    <mxGeometry x="-50" y="520" width="100" height="40" as="geometry"/>
                </mxCell>
                <mxCell id="lb8rc-n-M9KOPGfd7o1K-6" value="속성" style="text;html=1;align=center;verticalAlign=middle;whiteSpace=wrap;rounded=0;" vertex="1" parent="1">
                    <mxGeometry x="-30" y="510" width="270" height="60" as="geometry"/>
                </mxCell>
                <mxCell id="lb8rc-n-M9KOPGfd7o1K-7" value="&lt;span style=&quot;border-bottom: 1px dotted&quot;&gt;Attribute&lt;/span&gt;" style="ellipse;whiteSpace=wrap;html=1;align=center;" vertex="1" parent="1">
                    <mxGeometry x="-50" y="594" width="100" height="40" as="geometry"/>
                </mxCell>
                <mxCell id="lb8rc-n-M9KOPGfd7o1K-8" value="키(기본키) 속성" style="text;html=1;align=center;verticalAlign=middle;whiteSpace=wrap;rounded=0;" vertex="1" parent="1">
                    <mxGeometry x="-30" y="584" width="270" height="60" as="geometry"/>
                </mxCell>
                <mxCell id="lb8rc-n-M9KOPGfd7o1K-9" value="Attribute" style="ellipse;shape=doubleEllipse;margin=3;whiteSpace=wrap;html=1;align=center;" vertex="1" parent="1">
                    <mxGeometry x="-50" y="670" width="100" height="40" as="geometry"/>
                </mxCell>
                <mxCell id="lb8rc-n-M9KOPGfd7o1K-10" value="multi value(취미 : 야구, 독서, 수영)" style="text;html=1;align=center;verticalAlign=middle;whiteSpace=wrap;rounded=0;" vertex="1" parent="1">
                    <mxGeometry x="20" y="660" width="270" height="60" as="geometry"/>
                </mxCell>
                <mxCell id="lb8rc-n-M9KOPGfd7o1K-24" style="edgeStyle=none;html=1;entryX=1;entryY=0.5;entryDx=0;entryDy=0;fontFamily=Helvetica;fontSize=12;fontColor=default;endArrow=none;endFill=0;fillColor=#fff2cc;strokeColor=#d6b656;" edge="1" parent="1" source="lb8rc-n-M9KOPGfd7o1K-11" target="lb8rc-n-M9KOPGfd7o1K-12">
                    <mxGeometry relative="1" as="geometry"/>
                </mxCell>
                <mxCell id="lb8rc-n-M9KOPGfd7o1K-11" value="Relationship" style="shape=rhombus;perimeter=rhombusPerimeter;whiteSpace=wrap;html=1;align=center;fillColor=#fff2cc;strokeColor=#d6b656;" vertex="1" parent="1">
                    <mxGeometry x="261" y="790" width="120" height="60" as="geometry"/>
                </mxCell>
                <mxCell id="lb8rc-n-M9KOPGfd7o1K-12" value="Entity" style="whiteSpace=wrap;html=1;align=center;fillColor=#dae8fc;strokeColor=#6c8ebf;" vertex="1" parent="1">
                    <mxGeometry x="41" y="800" width="100" height="40" as="geometry"/>
                </mxCell>
                <mxCell id="lb8rc-n-M9KOPGfd7o1K-23" style="edgeStyle=none;html=1;entryX=1;entryY=0.5;entryDx=0;entryDy=0;fontFamily=Helvetica;fontSize=12;fontColor=default;endArrow=none;endFill=0;fillColor=#fff2cc;strokeColor=#d6b656;" edge="1" parent="1" source="lb8rc-n-M9KOPGfd7o1K-13" target="lb8rc-n-M9KOPGfd7o1K-11">
                    <mxGeometry relative="1" as="geometry"/>
                </mxCell>
                <mxCell id="lb8rc-n-M9KOPGfd7o1K-13" value="Entity" style="whiteSpace=wrap;html=1;align=center;fillColor=#dae8fc;strokeColor=#6c8ebf;" vertex="1" parent="1">
                    <mxGeometry x="501" y="800" width="100" height="40" as="geometry"/>
                </mxCell>
                <mxCell id="lb8rc-n-M9KOPGfd7o1K-25" value="1" style="text;html=1;align=center;verticalAlign=middle;whiteSpace=wrap;rounded=0;fontFamily=Helvetica;fontSize=12;fontColor=default;" vertex="1" parent="1">
                    <mxGeometry x="471" y="790" width="30" height="30" as="geometry"/>
                </mxCell>
                <mxCell id="lb8rc-n-M9KOPGfd7o1K-26" value="1" style="text;html=1;align=center;verticalAlign=middle;whiteSpace=wrap;rounded=0;fontFamily=Helvetica;fontSize=12;fontColor=default;" vertex="1" parent="1">
                    <mxGeometry x="141" y="790" width="30" height="30" as="geometry"/>
                </mxCell>
                <mxCell id="lb8rc-n-M9KOPGfd7o1K-27" style="edgeStyle=none;html=1;entryX=1;entryY=0.5;entryDx=0;entryDy=0;fontFamily=Helvetica;fontSize=12;fontColor=default;endArrow=none;endFill=0;fillColor=#fff2cc;strokeColor=#d6b656;" edge="1" source="lb8rc-n-M9KOPGfd7o1K-28" target="lb8rc-n-M9KOPGfd7o1K-29" parent="1">
                    <mxGeometry relative="1" as="geometry"/>
                </mxCell>
                <mxCell id="lb8rc-n-M9KOPGfd7o1K-28" value="Relationship" style="shape=rhombus;perimeter=rhombusPerimeter;whiteSpace=wrap;html=1;align=center;fillColor=#fff2cc;strokeColor=#d6b656;" vertex="1" parent="1">
                    <mxGeometry x="261" y="930" width="120" height="60" as="geometry"/>
                </mxCell>
                <mxCell id="lb8rc-n-M9KOPGfd7o1K-29" value="학과" style="whiteSpace=wrap;html=1;align=center;fillColor=#dae8fc;strokeColor=#6c8ebf;" vertex="1" parent="1">
                    <mxGeometry x="41" y="940" width="100" height="40" as="geometry"/>
                </mxCell>
                <mxCell id="lb8rc-n-M9KOPGfd7o1K-30" style="edgeStyle=none;html=1;entryX=1;entryY=0.5;entryDx=0;entryDy=0;fontFamily=Helvetica;fontSize=12;fontColor=default;endArrow=none;endFill=0;fillColor=#fff2cc;strokeColor=#d6b656;exitX=0;exitY=0.5;exitDx=0;exitDy=0;startArrow=ERmany;startFill=0;" edge="1" source="lb8rc-n-M9KOPGfd7o1K-31" target="lb8rc-n-M9KOPGfd7o1K-28" parent="1">
                    <mxGeometry relative="1" as="geometry"/>
                </mxCell>
                <mxCell id="lb8rc-n-M9KOPGfd7o1K-31" value="학생" style="whiteSpace=wrap;html=1;align=center;fillColor=#dae8fc;strokeColor=#6c8ebf;" vertex="1" parent="1">
                    <mxGeometry x="501" y="940" width="100" height="40" as="geometry"/>
                </mxCell>
                <mxCell id="lb8rc-n-M9KOPGfd7o1K-32" value="N" style="text;html=1;align=center;verticalAlign=middle;whiteSpace=wrap;rounded=0;fontFamily=Helvetica;fontSize=12;fontColor=default;" vertex="1" parent="1">
                    <mxGeometry x="471" y="930" width="30" height="30" as="geometry"/>
                </mxCell>
                <mxCell id="lb8rc-n-M9KOPGfd7o1K-33" value="1" style="text;html=1;align=center;verticalAlign=middle;whiteSpace=wrap;rounded=0;fontFamily=Helvetica;fontSize=12;fontColor=default;" vertex="1" parent="1">
                    <mxGeometry x="141" y="930" width="30" height="30" as="geometry"/>
                </mxCell>
                <mxCell id="lb8rc-n-M9KOPGfd7o1K-34" style="edgeStyle=none;html=1;entryX=1;entryY=0.5;entryDx=0;entryDy=0;fontFamily=Helvetica;fontSize=12;fontColor=default;endArrow=ERmany;endFill=0;fillColor=#fff2cc;strokeColor=#d6b656;startArrow=none;startFill=0;" edge="1" source="lb8rc-n-M9KOPGfd7o1K-35" target="lb8rc-n-M9KOPGfd7o1K-36" parent="1">
                    <mxGeometry relative="1" as="geometry"/>
                </mxCell>
                <mxCell id="lb8rc-n-M9KOPGfd7o1K-35" value="수강" style="shape=rhombus;perimeter=rhombusPerimeter;whiteSpace=wrap;html=1;align=center;fillColor=#fff2cc;strokeColor=#d6b656;" vertex="1" parent="1">
                    <mxGeometry x="261" y="1070" width="120" height="60" as="geometry"/>
                </mxCell>
                <mxCell id="lb8rc-n-M9KOPGfd7o1K-36" value="학생" style="whiteSpace=wrap;html=1;align=center;fillColor=#dae8fc;strokeColor=#6c8ebf;" vertex="1" parent="1">
                    <mxGeometry x="41" y="1080" width="100" height="40" as="geometry"/>
                </mxCell>
                <mxCell id="lb8rc-n-M9KOPGfd7o1K-37" style="edgeStyle=none;html=1;entryX=1;entryY=0.5;entryDx=0;entryDy=0;fontFamily=Helvetica;fontSize=12;fontColor=default;endArrow=none;endFill=0;fillColor=#fff2cc;strokeColor=#d6b656;exitX=0;exitY=0.5;exitDx=0;exitDy=0;startArrow=ERmany;startFill=0;" edge="1" source="lb8rc-n-M9KOPGfd7o1K-38" target="lb8rc-n-M9KOPGfd7o1K-35" parent="1">
                    <mxGeometry relative="1" as="geometry"/>
                </mxCell>
                <mxCell id="lb8rc-n-M9KOPGfd7o1K-38" value="과목" style="whiteSpace=wrap;html=1;align=center;fillColor=#dae8fc;strokeColor=#6c8ebf;" vertex="1" parent="1">
                    <mxGeometry x="501" y="1080" width="100" height="40" as="geometry"/>
                </mxCell>
                <mxCell id="lb8rc-n-M9KOPGfd7o1K-39" value="N" style="text;html=1;align=center;verticalAlign=middle;whiteSpace=wrap;rounded=0;fontFamily=Helvetica;fontSize=12;fontColor=default;" vertex="1" parent="1">
                    <mxGeometry x="471" y="1070" width="30" height="30" as="geometry"/>
                </mxCell>
                <mxCell id="lb8rc-n-M9KOPGfd7o1K-40" value="M" style="text;html=1;align=center;verticalAlign=middle;whiteSpace=wrap;rounded=0;fontFamily=Helvetica;fontSize=12;fontColor=default;" vertex="1" parent="1">
                    <mxGeometry x="141" y="1070" width="30" height="30" as="geometry"/>
                </mxCell>
                <mxCell id="MIZlOirqFbMQzi6cDTYV-1" value="복합속성" style="text;html=1;align=center;verticalAlign=middle;whiteSpace=wrap;rounded=0;fontFamily=Helvetica;fontSize=12;fontColor=default;" vertex="1" parent="1">
                    <mxGeometry x="355" y="430" width="60" height="30" as="geometry"/>
                </mxCell>
                <mxCell id="MIZlOirqFbMQzi6cDTYV-3" value="기본주소" style="ellipse;whiteSpace=wrap;html=1;align=center;strokeColor=default;verticalAlign=middle;fontFamily=Helvetica;fontSize=12;fontColor=default;fillColor=default;" vertex="1" parent="1">
                    <mxGeometry x="275" y="470" width="100" height="40" as="geometry"/>
                </mxCell>
                <mxCell id="MIZlOirqFbMQzi6cDTYV-4" value="상세주소" style="ellipse;whiteSpace=wrap;html=1;align=center;strokeColor=default;verticalAlign=middle;fontFamily=Helvetica;fontSize=12;fontColor=default;fillColor=default;" vertex="1" parent="1">
                    <mxGeometry x="401" y="470" width="100" height="40" as="geometry"/>
                </mxCell>
                <mxCell id="MIZlOirqFbMQzi6cDTYV-6" style="edgeStyle=none;html=1;entryX=0.5;entryY=1;entryDx=0;entryDy=0;fontFamily=Helvetica;fontSize=12;fontColor=default;exitX=0.5;exitY=0;exitDx=0;exitDy=0;" edge="1" parent="1" source="MIZlOirqFbMQzi6cDTYV-5" target="MIZlOirqFbMQzi6cDTYV-3">
                    <mxGeometry relative="1" as="geometry"/>
                </mxCell>
                <mxCell id="MIZlOirqFbMQzi6cDTYV-5" value="배송지" style="ellipse;whiteSpace=wrap;html=1;align=center;strokeColor=default;verticalAlign=middle;fontFamily=Helvetica;fontSize=12;fontColor=default;fillColor=default;" vertex="1" parent="1">
                    <mxGeometry x="335" y="560" width="100" height="40" as="geometry"/>
                </mxCell>
                <mxCell id="MIZlOirqFbMQzi6cDTYV-7" style="edgeStyle=none;html=1;entryX=0.5;entryY=1;entryDx=0;entryDy=0;fontFamily=Helvetica;fontSize=12;fontColor=default;exitX=0.5;exitY=0;exitDx=0;exitDy=0;" edge="1" parent="1" source="MIZlOirqFbMQzi6cDTYV-5" target="MIZlOirqFbMQzi6cDTYV-4">
                    <mxGeometry relative="1" as="geometry">
                        <mxPoint x="400.9998263515653" y="557.731405888936" as="sourcePoint"/>
                        <mxPoint x="454.65" y="510" as="targetPoint"/>
                    </mxGeometry>
                </mxCell>
            </root>
        </mxGraphModel>
    </diagram>
    <diagram id="0DApxUfo21vnTbSZtpch" name="한빛 ERD">
        <mxGraphModel dx="1925" dy="1887" grid="1" gridSize="10" guides="1" tooltips="1" connect="1" arrows="1" fold="1" page="1" pageScale="1" pageWidth="850" pageHeight="1100" math="0" shadow="0">
            <root>
                <mxCell id="0"/>
                <mxCell id="1" parent="0"/>
                <mxCell id="-GrquvQ0ckfhYBsekKqL-81" style="edgeStyle=none;html=1;entryX=0.5;entryY=0;entryDx=0;entryDy=0;fontFamily=Helvetica;fontSize=12;fontColor=default;endArrow=none;endFill=0;startArrow=none;startFill=0;" edge="1" parent="1" source="-GrquvQ0ckfhYBsekKqL-5" target="-GrquvQ0ckfhYBsekKqL-80">
                    <mxGeometry relative="1" as="geometry"/>
                </mxCell>
                <mxCell id="-GrquvQ0ckfhYBsekKqL-5" value="회원" style="whiteSpace=wrap;html=1;align=center;strokeColor=default;verticalAlign=middle;fontFamily=Helvetica;fontSize=12;fontColor=default;fillColor=default;" vertex="1" parent="1">
                    <mxGeometry x="200" y="180" width="100" height="40" as="geometry"/>
                </mxCell>
                <mxCell id="-GrquvQ0ckfhYBsekKqL-6" value="아이디" style="ellipse;whiteSpace=wrap;html=1;align=center;fontStyle=4;strokeColor=default;verticalAlign=middle;fontFamily=Helvetica;fontSize=12;fontColor=default;fillColor=default;" vertex="1" parent="1">
                    <mxGeometry x="-50" y="70" width="100" height="40" as="geometry"/>
                </mxCell>
                <mxCell id="-GrquvQ0ckfhYBsekKqL-7" value="비밀번호" style="ellipse;whiteSpace=wrap;html=1;align=center;strokeColor=default;verticalAlign=middle;fontFamily=Helvetica;fontSize=12;fontColor=default;fillColor=default;" vertex="1" parent="1">
                    <mxGeometry x="-50" y="130" width="100" height="40" as="geometry"/>
                </mxCell>
                <mxCell id="-GrquvQ0ckfhYBsekKqL-8" value="이름" style="ellipse;whiteSpace=wrap;html=1;align=center;strokeColor=default;verticalAlign=middle;fontFamily=Helvetica;fontSize=12;fontColor=default;fillColor=default;" vertex="1" parent="1">
                    <mxGeometry x="-50" y="190" width="100" height="40" as="geometry"/>
                </mxCell>
                <mxCell id="-GrquvQ0ckfhYBsekKqL-9" value="나이" style="ellipse;whiteSpace=wrap;html=1;align=center;strokeColor=default;verticalAlign=middle;fontFamily=Helvetica;fontSize=12;fontColor=default;fillColor=default;" vertex="1" parent="1">
                    <mxGeometry x="-50" y="250" width="100" height="40" as="geometry"/>
                </mxCell>
                <mxCell id="-GrquvQ0ckfhYBsekKqL-10" value="직업" style="ellipse;whiteSpace=wrap;html=1;align=center;strokeColor=default;verticalAlign=middle;fontFamily=Helvetica;fontSize=12;fontColor=default;fillColor=default;" vertex="1" parent="1">
                    <mxGeometry x="-50" y="310" width="100" height="40" as="geometry"/>
                </mxCell>
                <mxCell id="-GrquvQ0ckfhYBsekKqL-17" style="edgeStyle=none;html=1;entryX=1;entryY=0.5;entryDx=0;entryDy=0;fontFamily=Helvetica;fontSize=12;fontColor=default;exitX=0;exitY=0.5;exitDx=0;exitDy=0;endArrow=none;endFill=0;" edge="1" parent="1" source="-GrquvQ0ckfhYBsekKqL-5" target="-GrquvQ0ckfhYBsekKqL-6">
                    <mxGeometry relative="1" as="geometry">
                        <mxPoint x="178.33333333333326" y="145" as="sourcePoint"/>
                    </mxGeometry>
                </mxCell>
                <mxCell id="-GrquvQ0ckfhYBsekKqL-18" style="edgeStyle=none;html=1;entryX=1;entryY=0.5;entryDx=0;entryDy=0;fontFamily=Helvetica;fontSize=12;fontColor=default;exitX=0;exitY=0.5;exitDx=0;exitDy=0;endArrow=none;endFill=0;" edge="1" parent="1" source="-GrquvQ0ckfhYBsekKqL-5" target="-GrquvQ0ckfhYBsekKqL-7">
                    <mxGeometry relative="1" as="geometry">
                        <mxPoint x="160" y="150" as="sourcePoint"/>
                    </mxGeometry>
                </mxCell>
                <mxCell id="-GrquvQ0ckfhYBsekKqL-20" style="edgeStyle=none;html=1;entryX=1;entryY=0.5;entryDx=0;entryDy=0;fontFamily=Helvetica;fontSize=12;fontColor=default;exitX=0;exitY=0.5;exitDx=0;exitDy=0;endArrow=none;endFill=0;" edge="1" parent="1" source="-GrquvQ0ckfhYBsekKqL-5" target="-GrquvQ0ckfhYBsekKqL-9">
                    <mxGeometry relative="1" as="geometry">
                        <mxPoint x="184.16666666666674" y="155" as="sourcePoint"/>
                    </mxGeometry>
                </mxCell>
                <mxCell id="-GrquvQ0ckfhYBsekKqL-21" style="edgeStyle=none;html=1;entryX=1;entryY=0.5;entryDx=0;entryDy=0;fontFamily=Helvetica;fontSize=12;fontColor=default;exitX=0;exitY=0.5;exitDx=0;exitDy=0;endArrow=none;endFill=0;" edge="1" parent="1" source="-GrquvQ0ckfhYBsekKqL-5" target="-GrquvQ0ckfhYBsekKqL-10">
                    <mxGeometry relative="1" as="geometry">
                        <mxPoint x="186.1111111111111" y="155" as="sourcePoint"/>
                    </mxGeometry>
                </mxCell>
                <mxCell id="-GrquvQ0ckfhYBsekKqL-19" style="edgeStyle=none;html=1;entryX=0.98;entryY=0.325;entryDx=0;entryDy=0;entryPerimeter=0;fontFamily=Helvetica;fontSize=12;fontColor=default;endArrow=none;endFill=0;" edge="1" parent="1" target="-GrquvQ0ckfhYBsekKqL-8">
                    <mxGeometry relative="1" as="geometry">
                        <mxPoint x="200" y="200" as="sourcePoint"/>
                    </mxGeometry>
                </mxCell>
                <mxCell id="-GrquvQ0ckfhYBsekKqL-29" style="edgeStyle=none;html=1;entryX=0;entryY=0.5;entryDx=0;entryDy=0;fontFamily=Helvetica;fontSize=12;fontColor=default;exitX=1;exitY=0.5;exitDx=0;exitDy=0;endArrow=none;endFill=0;" edge="1" parent="1" source="-GrquvQ0ckfhYBsekKqL-22" target="-GrquvQ0ckfhYBsekKqL-23">
                    <mxGeometry relative="1" as="geometry"/>
                </mxCell>
                <mxCell id="-GrquvQ0ckfhYBsekKqL-30" style="edgeStyle=none;html=1;entryX=0;entryY=0.5;entryDx=0;entryDy=0;fontFamily=Helvetica;fontSize=12;fontColor=default;exitX=1;exitY=0.5;exitDx=0;exitDy=0;endArrow=none;endFill=0;" edge="1" parent="1" source="-GrquvQ0ckfhYBsekKqL-22" target="-GrquvQ0ckfhYBsekKqL-25">
                    <mxGeometry relative="1" as="geometry"/>
                </mxCell>
                <mxCell id="-GrquvQ0ckfhYBsekKqL-32" style="edgeStyle=none;html=1;entryX=0;entryY=0.5;entryDx=0;entryDy=0;fontFamily=Helvetica;fontSize=12;fontColor=default;exitX=1;exitY=0.5;exitDx=0;exitDy=0;endArrow=none;endFill=0;" edge="1" parent="1" source="-GrquvQ0ckfhYBsekKqL-22" target="-GrquvQ0ckfhYBsekKqL-28">
                    <mxGeometry relative="1" as="geometry">
                        <mxPoint x="668" y="200" as="sourcePoint"/>
                    </mxGeometry>
                </mxCell>
                <mxCell id="7zH0WLE_tyAnpYlnt5FW-7" style="edgeStyle=none;html=1;entryX=0;entryY=0.5;entryDx=0;entryDy=0;fontFamily=Helvetica;fontSize=12;fontColor=default;endArrow=none;endFill=0;" edge="1" parent="1" source="-GrquvQ0ckfhYBsekKqL-22" target="7zH0WLE_tyAnpYlnt5FW-6">
                    <mxGeometry relative="1" as="geometry"/>
                </mxCell>
                <mxCell id="-GrquvQ0ckfhYBsekKqL-22" value="상품" style="whiteSpace=wrap;html=1;align=center;strokeColor=default;verticalAlign=middle;fontFamily=Helvetica;fontSize=12;fontColor=default;fillColor=default;" vertex="1" parent="1">
                    <mxGeometry x="558" y="180" width="100" height="40" as="geometry"/>
                </mxCell>
                <mxCell id="-GrquvQ0ckfhYBsekKqL-23" value="상품번호" style="ellipse;whiteSpace=wrap;html=1;align=center;fontStyle=4;strokeColor=default;verticalAlign=middle;fontFamily=Helvetica;fontSize=12;fontColor=default;fillColor=default;" vertex="1" parent="1">
                    <mxGeometry x="750" y="40" width="100" height="40" as="geometry"/>
                </mxCell>
                <mxCell id="-GrquvQ0ckfhYBsekKqL-25" value="상품명" style="ellipse;whiteSpace=wrap;html=1;align=center;strokeColor=default;verticalAlign=middle;fontFamily=Helvetica;fontSize=12;fontColor=default;fillColor=default;" vertex="1" parent="1">
                    <mxGeometry x="748" y="100" width="100" height="40" as="geometry"/>
                </mxCell>
                <mxCell id="-GrquvQ0ckfhYBsekKqL-26" value="재고량" style="ellipse;whiteSpace=wrap;html=1;align=center;strokeColor=default;verticalAlign=middle;fontFamily=Helvetica;fontSize=12;fontColor=default;fillColor=default;" vertex="1" parent="1">
                    <mxGeometry x="748" y="210" width="100" height="40" as="geometry"/>
                </mxCell>
                <mxCell id="-GrquvQ0ckfhYBsekKqL-28" value="단가" style="ellipse;whiteSpace=wrap;html=1;align=center;strokeColor=default;verticalAlign=middle;fontFamily=Helvetica;fontSize=12;fontColor=default;fillColor=default;" vertex="1" parent="1">
                    <mxGeometry x="748" y="270" width="100" height="40" as="geometry"/>
                </mxCell>
                <mxCell id="-GrquvQ0ckfhYBsekKqL-31" style="edgeStyle=none;html=1;entryX=0.03;entryY=0.675;entryDx=0;entryDy=0;entryPerimeter=0;fontFamily=Helvetica;fontSize=12;fontColor=default;exitX=1;exitY=0.5;exitDx=0;exitDy=0;endArrow=none;endFill=0;" edge="1" parent="1" source="-GrquvQ0ckfhYBsekKqL-22" target="-GrquvQ0ckfhYBsekKqL-26">
                    <mxGeometry relative="1" as="geometry"/>
                </mxCell>
                <mxCell id="-GrquvQ0ckfhYBsekKqL-34" style="edgeStyle=none;html=1;entryX=0;entryY=0.5;entryDx=0;entryDy=0;fontFamily=Helvetica;fontSize=12;fontColor=default;exitX=1;exitY=0.5;exitDx=0;exitDy=0;endArrow=none;endFill=0;" edge="1" parent="1" source="-GrquvQ0ckfhYBsekKqL-37" target="-GrquvQ0ckfhYBsekKqL-38">
                    <mxGeometry relative="1" as="geometry"/>
                </mxCell>
                <mxCell id="-GrquvQ0ckfhYBsekKqL-35" style="edgeStyle=none;html=1;entryX=0;entryY=0.5;entryDx=0;entryDy=0;fontFamily=Helvetica;fontSize=12;fontColor=default;exitX=1;exitY=0.5;exitDx=0;exitDy=0;endArrow=none;endFill=0;" edge="1" parent="1" source="-GrquvQ0ckfhYBsekKqL-37" target="-GrquvQ0ckfhYBsekKqL-39">
                    <mxGeometry relative="1" as="geometry"/>
                </mxCell>
                <mxCell id="-GrquvQ0ckfhYBsekKqL-36" style="edgeStyle=none;html=1;entryX=0;entryY=0.5;entryDx=0;entryDy=0;fontFamily=Helvetica;fontSize=12;fontColor=default;exitX=1;exitY=0.5;exitDx=0;exitDy=0;endArrow=none;endFill=0;" edge="1" parent="1" source="-GrquvQ0ckfhYBsekKqL-37" target="-GrquvQ0ckfhYBsekKqL-41">
                    <mxGeometry relative="1" as="geometry">
                        <mxPoint x="668" y="540" as="sourcePoint"/>
                    </mxGeometry>
                </mxCell>
                <mxCell id="-GrquvQ0ckfhYBsekKqL-44" style="edgeStyle=none;html=1;entryX=0;entryY=0.5;entryDx=0;entryDy=0;fontFamily=Helvetica;fontSize=12;fontColor=default;exitX=1;exitY=0.5;exitDx=0;exitDy=0;endArrow=none;endFill=0;" edge="1" parent="1" source="-GrquvQ0ckfhYBsekKqL-37" target="-GrquvQ0ckfhYBsekKqL-43">
                    <mxGeometry relative="1" as="geometry"/>
                </mxCell>
                <mxCell id="-GrquvQ0ckfhYBsekKqL-37" value="제조업체" style="whiteSpace=wrap;html=1;align=center;strokeColor=default;verticalAlign=middle;fontFamily=Helvetica;fontSize=12;fontColor=default;fillColor=default;" vertex="1" parent="1">
                    <mxGeometry x="558" y="525" width="100" height="40" as="geometry"/>
                </mxCell>
                <mxCell id="-GrquvQ0ckfhYBsekKqL-38" value="업체코드" style="ellipse;whiteSpace=wrap;html=1;align=center;fontStyle=4;strokeColor=default;verticalAlign=middle;fontFamily=Helvetica;fontSize=12;fontColor=default;fillColor=default;" vertex="1" parent="1">
                    <mxGeometry x="760" y="450" width="100" height="40" as="geometry"/>
                </mxCell>
                <mxCell id="-GrquvQ0ckfhYBsekKqL-39" value="업체명" style="ellipse;whiteSpace=wrap;html=1;align=center;strokeColor=default;verticalAlign=middle;fontFamily=Helvetica;fontSize=12;fontColor=default;fillColor=default;" vertex="1" parent="1">
                    <mxGeometry x="760" y="500" width="100" height="40" as="geometry"/>
                </mxCell>
                <mxCell id="-GrquvQ0ckfhYBsekKqL-40" value="전화번호" style="ellipse;whiteSpace=wrap;html=1;align=center;strokeColor=default;verticalAlign=middle;fontFamily=Helvetica;fontSize=12;fontColor=default;fillColor=default;" vertex="1" parent="1">
                    <mxGeometry x="760" y="555" width="100" height="40" as="geometry"/>
                </mxCell>
                <mxCell id="-GrquvQ0ckfhYBsekKqL-41" value="위치" style="ellipse;whiteSpace=wrap;html=1;align=center;strokeColor=default;verticalAlign=middle;fontFamily=Helvetica;fontSize=12;fontColor=default;fillColor=default;" vertex="1" parent="1">
                    <mxGeometry x="760" y="610" width="100" height="40" as="geometry"/>
                </mxCell>
                <mxCell id="-GrquvQ0ckfhYBsekKqL-42" style="edgeStyle=none;html=1;entryX=0.03;entryY=0.675;entryDx=0;entryDy=0;entryPerimeter=0;fontFamily=Helvetica;fontSize=12;fontColor=default;exitX=1;exitY=0.5;exitDx=0;exitDy=0;endArrow=none;endFill=0;" edge="1" parent="1" source="-GrquvQ0ckfhYBsekKqL-37" target="-GrquvQ0ckfhYBsekKqL-40">
                    <mxGeometry relative="1" as="geometry"/>
                </mxCell>
                <mxCell id="-GrquvQ0ckfhYBsekKqL-43" value="담당자" style="ellipse;whiteSpace=wrap;html=1;align=center;strokeColor=default;verticalAlign=middle;fontFamily=Helvetica;fontSize=12;fontColor=default;fillColor=default;" vertex="1" parent="1">
                    <mxGeometry x="760" y="665" width="100" height="40" as="geometry"/>
                </mxCell>
                <mxCell id="-GrquvQ0ckfhYBsekKqL-45" value="게시글" style="whiteSpace=wrap;html=1;align=center;strokeColor=default;verticalAlign=middle;fontFamily=Helvetica;fontSize=12;fontColor=default;fillColor=default;" vertex="1" parent="1">
                    <mxGeometry x="200" y="525" width="100" height="40" as="geometry"/>
                </mxCell>
                <mxCell id="-GrquvQ0ckfhYBsekKqL-46" value="글번호" style="ellipse;whiteSpace=wrap;html=1;align=center;fontStyle=4;strokeColor=default;verticalAlign=middle;fontFamily=Helvetica;fontSize=12;fontColor=default;fillColor=default;" vertex="1" parent="1">
                    <mxGeometry x="-50" y="415" width="100" height="40" as="geometry"/>
                </mxCell>
                <mxCell id="-GrquvQ0ckfhYBsekKqL-47" value="제목" style="ellipse;whiteSpace=wrap;html=1;align=center;strokeColor=default;verticalAlign=middle;fontFamily=Helvetica;fontSize=12;fontColor=default;fillColor=default;" vertex="1" parent="1">
                    <mxGeometry x="-50" y="475" width="100" height="40" as="geometry"/>
                </mxCell>
                <mxCell id="-GrquvQ0ckfhYBsekKqL-48" value="내용" style="ellipse;whiteSpace=wrap;html=1;align=center;strokeColor=default;verticalAlign=middle;fontFamily=Helvetica;fontSize=12;fontColor=default;fillColor=default;" vertex="1" parent="1">
                    <mxGeometry x="-50" y="555" width="100" height="40" as="geometry"/>
                </mxCell>
                <mxCell id="-GrquvQ0ckfhYBsekKqL-49" value="작성일" style="ellipse;whiteSpace=wrap;html=1;align=center;strokeColor=default;verticalAlign=middle;fontFamily=Helvetica;fontSize=12;fontColor=default;fillColor=default;" vertex="1" parent="1">
                    <mxGeometry x="-50" y="625" width="100" height="40" as="geometry"/>
                </mxCell>
                <mxCell id="-GrquvQ0ckfhYBsekKqL-51" style="edgeStyle=none;html=1;entryX=1;entryY=0.5;entryDx=0;entryDy=0;fontFamily=Helvetica;fontSize=12;fontColor=default;exitX=0;exitY=0.5;exitDx=0;exitDy=0;endArrow=none;endFill=0;" edge="1" source="-GrquvQ0ckfhYBsekKqL-45" target="-GrquvQ0ckfhYBsekKqL-46" parent="1">
                    <mxGeometry relative="1" as="geometry">
                        <mxPoint x="178.33333333333326" y="490" as="sourcePoint"/>
                    </mxGeometry>
                </mxCell>
                <mxCell id="-GrquvQ0ckfhYBsekKqL-52" style="edgeStyle=none;html=1;entryX=1;entryY=0.5;entryDx=0;entryDy=0;fontFamily=Helvetica;fontSize=12;fontColor=default;exitX=0;exitY=0.5;exitDx=0;exitDy=0;endArrow=none;endFill=0;" edge="1" source="-GrquvQ0ckfhYBsekKqL-45" target="-GrquvQ0ckfhYBsekKqL-47" parent="1">
                    <mxGeometry relative="1" as="geometry">
                        <mxPoint x="160" y="495" as="sourcePoint"/>
                    </mxGeometry>
                </mxCell>
                <mxCell id="-GrquvQ0ckfhYBsekKqL-53" style="edgeStyle=none;html=1;entryX=1;entryY=0.5;entryDx=0;entryDy=0;fontFamily=Helvetica;fontSize=12;fontColor=default;exitX=0;exitY=0.5;exitDx=0;exitDy=0;endArrow=none;endFill=0;" edge="1" source="-GrquvQ0ckfhYBsekKqL-45" target="-GrquvQ0ckfhYBsekKqL-49" parent="1">
                    <mxGeometry relative="1" as="geometry">
                        <mxPoint x="184.16666666666674" y="500" as="sourcePoint"/>
                    </mxGeometry>
                </mxCell>
                <mxCell id="-GrquvQ0ckfhYBsekKqL-55" style="edgeStyle=none;html=1;entryX=0.98;entryY=0.325;entryDx=0;entryDy=0;entryPerimeter=0;fontFamily=Helvetica;fontSize=12;fontColor=default;endArrow=none;endFill=0;" edge="1" target="-GrquvQ0ckfhYBsekKqL-48" parent="1">
                    <mxGeometry relative="1" as="geometry">
                        <mxPoint x="200" y="545" as="sourcePoint"/>
                    </mxGeometry>
                </mxCell>
                <mxCell id="-GrquvQ0ckfhYBsekKqL-59" style="edgeStyle=none;html=1;entryX=0;entryY=0.5;entryDx=0;entryDy=0;fontFamily=Helvetica;fontSize=12;fontColor=default;endArrow=ERmany;endFill=0;" edge="1" parent="1" source="-GrquvQ0ckfhYBsekKqL-58" target="-GrquvQ0ckfhYBsekKqL-22">
                    <mxGeometry relative="1" as="geometry"/>
                </mxCell>
                <mxCell id="-GrquvQ0ckfhYBsekKqL-60" style="edgeStyle=none;html=1;entryX=1;entryY=0.5;entryDx=0;entryDy=0;fontFamily=Helvetica;fontSize=12;fontColor=default;endArrow=ERmany;endFill=0;" edge="1" parent="1" source="-GrquvQ0ckfhYBsekKqL-58" target="-GrquvQ0ckfhYBsekKqL-5">
                    <mxGeometry relative="1" as="geometry"/>
                </mxCell>
                <mxCell id="-GrquvQ0ckfhYBsekKqL-94" style="edgeStyle=none;html=1;entryX=0.5;entryY=1;entryDx=0;entryDy=0;fontFamily=Helvetica;fontSize=12;fontColor=default;exitX=0.5;exitY=0;exitDx=0;exitDy=0;endArrow=none;endFill=0;" edge="1" parent="1" source="-GrquvQ0ckfhYBsekKqL-58" target="-GrquvQ0ckfhYBsekKqL-90">
                    <mxGeometry relative="1" as="geometry"/>
                </mxCell>
                <mxCell id="-GrquvQ0ckfhYBsekKqL-96" style="edgeStyle=none;html=1;entryX=0.5;entryY=1;entryDx=0;entryDy=0;fontFamily=Helvetica;fontSize=12;fontColor=default;endArrow=none;endFill=0;" edge="1" parent="1" target="-GrquvQ0ckfhYBsekKqL-92">
                    <mxGeometry relative="1" as="geometry">
                        <mxPoint x="430" y="170" as="sourcePoint"/>
                    </mxGeometry>
                </mxCell>
                <mxCell id="-GrquvQ0ckfhYBsekKqL-97" style="edgeStyle=none;html=1;entryX=0.5;entryY=1;entryDx=0;entryDy=0;fontFamily=Helvetica;fontSize=12;fontColor=default;exitX=0.5;exitY=0;exitDx=0;exitDy=0;endArrow=none;endFill=0;" edge="1" parent="1" source="-GrquvQ0ckfhYBsekKqL-58" target="-GrquvQ0ckfhYBsekKqL-93">
                    <mxGeometry relative="1" as="geometry"/>
                </mxCell>
                <mxCell id="-GrquvQ0ckfhYBsekKqL-58" value="주문" style="shape=rhombus;perimeter=rhombusPerimeter;whiteSpace=wrap;html=1;align=center;strokeColor=default;verticalAlign=middle;fontFamily=Helvetica;fontSize=12;fontColor=default;fillColor=default;" vertex="1" parent="1">
                    <mxGeometry x="370" y="170" width="120" height="60" as="geometry"/>
                </mxCell>
                <mxCell id="-GrquvQ0ckfhYBsekKqL-61" value="M" style="text;html=1;align=center;verticalAlign=middle;whiteSpace=wrap;rounded=0;fontFamily=Helvetica;fontSize=12;fontColor=default;" vertex="1" parent="1">
                    <mxGeometry x="300" y="170" width="30" height="30" as="geometry"/>
                </mxCell>
                <mxCell id="-GrquvQ0ckfhYBsekKqL-62" value="N" style="text;html=1;align=center;verticalAlign=middle;whiteSpace=wrap;rounded=0;fontFamily=Helvetica;fontSize=12;fontColor=default;" vertex="1" parent="1">
                    <mxGeometry x="528" y="170" width="30" height="30" as="geometry"/>
                </mxCell>
                <mxCell id="-GrquvQ0ckfhYBsekKqL-76" style="edgeStyle=none;html=1;entryX=0.5;entryY=1;entryDx=0;entryDy=0;fontFamily=Helvetica;fontSize=12;fontColor=default;endArrow=ERmany;endFill=0;" edge="1" parent="1" source="-GrquvQ0ckfhYBsekKqL-66" target="-GrquvQ0ckfhYBsekKqL-22">
                    <mxGeometry relative="1" as="geometry"/>
                </mxCell>
                <mxCell id="-GrquvQ0ckfhYBsekKqL-77" style="edgeStyle=none;html=1;exitX=0.5;exitY=1;exitDx=0;exitDy=0;fontFamily=Helvetica;fontSize=12;fontColor=default;endArrow=none;endFill=0;" edge="1" parent="1" source="-GrquvQ0ckfhYBsekKqL-66" target="-GrquvQ0ckfhYBsekKqL-37">
                    <mxGeometry relative="1" as="geometry"/>
                </mxCell>
                <mxCell id="-GrquvQ0ckfhYBsekKqL-89" style="edgeStyle=none;html=1;entryX=0;entryY=0.5;entryDx=0;entryDy=0;fontFamily=Helvetica;fontSize=12;fontColor=default;exitX=1;exitY=0.5;exitDx=0;exitDy=0;endArrow=none;endFill=0;" edge="1" parent="1" source="-GrquvQ0ckfhYBsekKqL-66" target="-GrquvQ0ckfhYBsekKqL-86">
                    <mxGeometry relative="1" as="geometry">
                        <mxPoint x="680" y="370" as="sourcePoint"/>
                    </mxGeometry>
                </mxCell>
                <mxCell id="-GrquvQ0ckfhYBsekKqL-66" value="공급" style="shape=rhombus;perimeter=rhombusPerimeter;whiteSpace=wrap;html=1;align=center;strokeColor=default;verticalAlign=middle;fontFamily=Helvetica;fontSize=12;fontColor=default;fillColor=default;" vertex="1" parent="1">
                    <mxGeometry x="548" y="340" width="120" height="60" as="geometry"/>
                </mxCell>
                <mxCell id="-GrquvQ0ckfhYBsekKqL-78" value="N" style="text;html=1;align=center;verticalAlign=middle;whiteSpace=wrap;rounded=0;fontFamily=Helvetica;fontSize=12;fontColor=default;" vertex="1" parent="1">
                    <mxGeometry x="580" y="220" width="30" height="30" as="geometry"/>
                </mxCell>
                <mxCell id="-GrquvQ0ckfhYBsekKqL-79" value="1" style="text;html=1;align=center;verticalAlign=middle;whiteSpace=wrap;rounded=0;fontFamily=Helvetica;fontSize=12;fontColor=default;" vertex="1" parent="1">
                    <mxGeometry x="580" y="495" width="30" height="30" as="geometry"/>
                </mxCell>
                <mxCell id="-GrquvQ0ckfhYBsekKqL-82" style="edgeStyle=none;html=1;entryX=0.5;entryY=0;entryDx=0;entryDy=0;fontFamily=Helvetica;fontSize=12;fontColor=default;endArrow=ERmany;endFill=0;startArrow=none;startFill=0;" edge="1" parent="1" source="-GrquvQ0ckfhYBsekKqL-80" target="-GrquvQ0ckfhYBsekKqL-45">
                    <mxGeometry relative="1" as="geometry"/>
                </mxCell>
                <mxCell id="-GrquvQ0ckfhYBsekKqL-80" value="작성" style="shape=rhombus;perimeter=rhombusPerimeter;whiteSpace=wrap;html=1;align=center;strokeColor=default;verticalAlign=middle;fontFamily=Helvetica;fontSize=12;fontColor=default;fillColor=default;" vertex="1" parent="1">
                    <mxGeometry x="190" y="340" width="120" height="60" as="geometry"/>
                </mxCell>
                <mxCell id="-GrquvQ0ckfhYBsekKqL-83" value="N" style="text;html=1;align=center;verticalAlign=middle;whiteSpace=wrap;rounded=0;fontFamily=Helvetica;fontSize=12;fontColor=default;" vertex="1" parent="1">
                    <mxGeometry x="250" y="495" width="30" height="30" as="geometry"/>
                </mxCell>
                <mxCell id="-GrquvQ0ckfhYBsekKqL-84" value="1" style="text;html=1;align=center;verticalAlign=middle;whiteSpace=wrap;rounded=0;fontFamily=Helvetica;fontSize=12;fontColor=default;" vertex="1" parent="1">
                    <mxGeometry x="250" y="220" width="30" height="30" as="geometry"/>
                </mxCell>
                <mxCell id="-GrquvQ0ckfhYBsekKqL-85" value="공급일자" style="ellipse;whiteSpace=wrap;html=1;align=center;strokeColor=default;verticalAlign=middle;fontFamily=Helvetica;fontSize=12;fontColor=default;fillColor=default;" vertex="1" parent="1">
                    <mxGeometry x="700" y="330" width="100" height="40" as="geometry"/>
                </mxCell>
                <mxCell id="-GrquvQ0ckfhYBsekKqL-86" value="공급량" style="ellipse;whiteSpace=wrap;html=1;align=center;strokeColor=default;verticalAlign=middle;fontFamily=Helvetica;fontSize=12;fontColor=default;fillColor=default;" vertex="1" parent="1">
                    <mxGeometry x="700" y="375" width="100" height="40" as="geometry"/>
                </mxCell>
                <mxCell id="-GrquvQ0ckfhYBsekKqL-88" style="edgeStyle=none;html=1;entryX=0;entryY=0.675;entryDx=0;entryDy=0;entryPerimeter=0;fontFamily=Helvetica;fontSize=12;fontColor=default;exitX=1;exitY=0.5;exitDx=0;exitDy=0;endArrow=none;endFill=0;" edge="1" parent="1" source="-GrquvQ0ckfhYBsekKqL-66" target="-GrquvQ0ckfhYBsekKqL-85">
                    <mxGeometry relative="1" as="geometry"/>
                </mxCell>
                <mxCell id="-GrquvQ0ckfhYBsekKqL-90" value="주문번호" style="ellipse;whiteSpace=wrap;html=1;align=center;fontStyle=4;strokeColor=default;verticalAlign=middle;fontFamily=Helvetica;fontSize=12;fontColor=default;fillColor=default;" vertex="1" parent="1">
                    <mxGeometry x="250" y="60" width="100" height="40" as="geometry"/>
                </mxCell>
                <mxCell id="-GrquvQ0ckfhYBsekKqL-91" value="주문수량" style="ellipse;whiteSpace=wrap;html=1;align=center;strokeColor=default;verticalAlign=middle;fontFamily=Helvetica;fontSize=12;fontColor=default;fillColor=default;" vertex="1" parent="1">
                    <mxGeometry x="310" y="10" width="100" height="40" as="geometry"/>
                </mxCell>
                <mxCell id="-GrquvQ0ckfhYBsekKqL-92" value="주문일자" style="ellipse;whiteSpace=wrap;html=1;align=center;strokeColor=default;verticalAlign=middle;fontFamily=Helvetica;fontSize=12;fontColor=default;fillColor=default;" vertex="1" parent="1">
                    <mxGeometry x="440" y="10" width="100" height="40" as="geometry"/>
                </mxCell>
                <mxCell id="YShrZrY8LMQjPmXUwG6x-5" style="edgeStyle=none;html=1;entryX=0.5;entryY=1;entryDx=0;entryDy=0;fontFamily=Helvetica;fontSize=12;fontColor=default;endArrow=none;endFill=0;exitX=0.5;exitY=0;exitDx=0;exitDy=0;" edge="1" parent="1" source="-GrquvQ0ckfhYBsekKqL-93" target="YShrZrY8LMQjPmXUwG6x-3">
                    <mxGeometry relative="1" as="geometry"/>
                </mxCell>
                <mxCell id="YShrZrY8LMQjPmXUwG6x-6" style="edgeStyle=none;html=1;entryX=0.5;entryY=1;entryDx=0;entryDy=0;fontFamily=Helvetica;fontSize=12;fontColor=default;endArrow=none;endFill=0;exitX=0.5;exitY=0;exitDx=0;exitDy=0;" edge="1" parent="1" source="-GrquvQ0ckfhYBsekKqL-93" target="YShrZrY8LMQjPmXUwG6x-4">
                    <mxGeometry relative="1" as="geometry"/>
                </mxCell>
                <mxCell id="-GrquvQ0ckfhYBsekKqL-93" value="배송지" style="ellipse;whiteSpace=wrap;html=1;align=center;strokeColor=default;verticalAlign=middle;fontFamily=Helvetica;fontSize=12;fontColor=default;fillColor=default;" vertex="1" parent="1">
                    <mxGeometry x="590" y="30" width="100" height="40" as="geometry"/>
                </mxCell>
                <mxCell id="-GrquvQ0ckfhYBsekKqL-95" style="edgeStyle=none;html=1;entryX=0.63;entryY=1.025;entryDx=0;entryDy=0;entryPerimeter=0;fontFamily=Helvetica;fontSize=12;fontColor=default;exitX=0.5;exitY=0;exitDx=0;exitDy=0;endArrow=none;endFill=0;" edge="1" parent="1" source="-GrquvQ0ckfhYBsekKqL-58" target="-GrquvQ0ckfhYBsekKqL-91">
                    <mxGeometry relative="1" as="geometry"/>
                </mxCell>
                <mxCell id="YShrZrY8LMQjPmXUwG6x-3" value="기본주소" style="ellipse;whiteSpace=wrap;html=1;align=center;strokeColor=default;verticalAlign=middle;fontFamily=Helvetica;fontSize=12;fontColor=default;fillColor=default;" vertex="1" parent="1">
                    <mxGeometry x="528" y="-80" width="100" height="40" as="geometry"/>
                </mxCell>
                <mxCell id="YShrZrY8LMQjPmXUwG6x-4" value="상세주소" style="ellipse;whiteSpace=wrap;html=1;align=center;strokeColor=default;verticalAlign=middle;fontFamily=Helvetica;fontSize=12;fontColor=default;fillColor=default;" vertex="1" parent="1">
                    <mxGeometry x="648" y="-80" width="100" height="40" as="geometry"/>
                </mxCell>
                <mxCell id="7zH0WLE_tyAnpYlnt5FW-6" value="상품색상" style="ellipse;shape=doubleEllipse;margin=3;whiteSpace=wrap;html=1;align=center;strokeColor=default;verticalAlign=middle;fontFamily=Helvetica;fontSize=12;fontColor=default;fillColor=default;" vertex="1" parent="1">
                    <mxGeometry x="750" y="160" width="100" height="40" as="geometry"/>
                </mxCell>
            </root>
        </mxGraphModel>
    </diagram>
    <diagram id="4IQ9ovUhQ7LQp6O4E-g2" name="한빛 릴레이션">
        <mxGraphModel dx="1925" dy="1887" grid="1" gridSize="10" guides="1" tooltips="1" connect="1" arrows="1" fold="1" page="1" pageScale="1" pageWidth="850" pageHeight="1100" math="0" shadow="0">
            <root>
                <mxCell id="0"/>
                <mxCell id="1" parent="0"/>
                <mxCell id="fppfiMTQBlnn9rGk8LIh-1" value="&lt;b&gt;&lt;font style=&quot;font-size: 17px;&quot;&gt;릴레이션 스키마&amp;nbsp;&lt;span style=&quot;background-color: transparent;&quot;&gt;(관계데이터모델)&lt;/span&gt;&lt;/font&gt;&lt;/b&gt;&lt;div&gt;&lt;span style=&quot;background-color: transparent;&quot;&gt;&lt;br&gt;&lt;/span&gt;&lt;/div&gt;&lt;div&gt;&lt;span style=&quot;background-color: transparent;&quot;&gt;1. 모든 개체는 릴레이션으로 변환&lt;/span&gt;&lt;/div&gt;&lt;div&gt;&lt;span style=&quot;background-color: transparent;&quot;&gt;2.다대다 관계는 릴레이션으로 변환한다.&lt;/span&gt;&lt;/div&gt;&lt;div&gt;&lt;span style=&quot;background-color: transparent;&quot;&gt;3.일대다 관계는 외래키로 표현한다.&lt;/span&gt;&lt;/div&gt;&lt;div&gt;&lt;span style=&quot;background-color: transparent;&quot;&gt;4.일대일 관계는 외래키로 표현한다.&lt;/span&gt;&lt;/div&gt;&lt;div style=&quot;&quot;&gt;&lt;span style=&quot;background-color: transparent;&quot;&gt;5.다중값 속성은 릴레이션으로 변환한다.&lt;/span&gt;&lt;/div&gt;" style="text;html=1;align=left;verticalAlign=middle;whiteSpace=wrap;rounded=0;fontFamily=Helvetica;fontSize=12;fontColor=default;" vertex="1" parent="1">
                    <mxGeometry x="-150" y="-120" width="300" height="210" as="geometry"/>
                </mxCell>
                <mxCell id="fppfiMTQBlnn9rGk8LIh-2" value="회원" style="shape=table;startSize=30;container=1;collapsible=1;childLayout=tableLayout;fixedRows=1;rowLines=0;fontStyle=1;align=center;resizeLast=1;html=1;strokeColor=default;verticalAlign=middle;fontFamily=Helvetica;fontSize=12;fontColor=default;fillColor=default;" vertex="1" parent="1">
                    <mxGeometry x="-20" y="100" width="180" height="180" as="geometry"/>
                </mxCell>
                <mxCell id="fppfiMTQBlnn9rGk8LIh-3" value="" style="shape=tableRow;horizontal=0;startSize=0;swimlaneHead=0;swimlaneBody=0;fillColor=none;collapsible=0;dropTarget=0;points=[[0,0.5],[1,0.5]];portConstraint=eastwest;top=0;left=0;right=0;bottom=1;strokeColor=default;align=center;verticalAlign=middle;fontFamily=Helvetica;fontSize=12;fontColor=default;" vertex="1" parent="fppfiMTQBlnn9rGk8LIh-2">
                    <mxGeometry y="30" width="180" height="30" as="geometry"/>
                </mxCell>
                <mxCell id="fppfiMTQBlnn9rGk8LIh-4" value="PK" style="shape=partialRectangle;connectable=0;fillColor=none;top=0;left=0;bottom=0;right=0;fontStyle=1;overflow=hidden;whiteSpace=wrap;html=1;strokeColor=default;align=center;verticalAlign=middle;fontFamily=Helvetica;fontSize=12;fontColor=default;" vertex="1" parent="fppfiMTQBlnn9rGk8LIh-3">
                    <mxGeometry width="30" height="30" as="geometry">
                        <mxRectangle width="30" height="30" as="alternateBounds"/>
                    </mxGeometry>
                </mxCell>
                <mxCell id="fppfiMTQBlnn9rGk8LIh-5" value="아이디" style="shape=partialRectangle;connectable=0;fillColor=none;top=0;left=0;bottom=0;right=0;align=left;spacingLeft=6;fontStyle=5;overflow=hidden;whiteSpace=wrap;html=1;strokeColor=default;verticalAlign=middle;fontFamily=Helvetica;fontSize=12;fontColor=default;" vertex="1" parent="fppfiMTQBlnn9rGk8LIh-3">
                    <mxGeometry x="30" width="150" height="30" as="geometry">
                        <mxRectangle width="150" height="30" as="alternateBounds"/>
                    </mxGeometry>
                </mxCell>
                <mxCell id="fppfiMTQBlnn9rGk8LIh-6" value="" style="shape=tableRow;horizontal=0;startSize=0;swimlaneHead=0;swimlaneBody=0;fillColor=none;collapsible=0;dropTarget=0;points=[[0,0.5],[1,0.5]];portConstraint=eastwest;top=0;left=0;right=0;bottom=0;strokeColor=default;align=center;verticalAlign=middle;fontFamily=Helvetica;fontSize=12;fontColor=default;" vertex="1" parent="fppfiMTQBlnn9rGk8LIh-2">
                    <mxGeometry y="60" width="180" height="30" as="geometry"/>
                </mxCell>
                <mxCell id="fppfiMTQBlnn9rGk8LIh-7" value="" style="shape=partialRectangle;connectable=0;fillColor=none;top=0;left=0;bottom=0;right=0;editable=1;overflow=hidden;whiteSpace=wrap;html=1;strokeColor=default;align=center;verticalAlign=middle;fontFamily=Helvetica;fontSize=12;fontColor=default;" vertex="1" parent="fppfiMTQBlnn9rGk8LIh-6">
                    <mxGeometry width="30" height="30" as="geometry">
                        <mxRectangle width="30" height="30" as="alternateBounds"/>
                    </mxGeometry>
                </mxCell>
                <mxCell id="fppfiMTQBlnn9rGk8LIh-8" value="비밀번호&lt;span style=&quot;white-space: pre;&quot;&gt;&#x9;&lt;/span&gt;" style="shape=partialRectangle;connectable=0;fillColor=none;top=0;left=0;bottom=0;right=0;align=left;spacingLeft=6;overflow=hidden;whiteSpace=wrap;html=1;strokeColor=default;verticalAlign=middle;fontFamily=Helvetica;fontSize=12;fontColor=default;" vertex="1" parent="fppfiMTQBlnn9rGk8LIh-6">
                    <mxGeometry x="30" width="150" height="30" as="geometry">
                        <mxRectangle width="150" height="30" as="alternateBounds"/>
                    </mxGeometry>
                </mxCell>
                <mxCell id="fppfiMTQBlnn9rGk8LIh-9" value="" style="shape=tableRow;horizontal=0;startSize=0;swimlaneHead=0;swimlaneBody=0;fillColor=none;collapsible=0;dropTarget=0;points=[[0,0.5],[1,0.5]];portConstraint=eastwest;top=0;left=0;right=0;bottom=0;strokeColor=default;align=center;verticalAlign=middle;fontFamily=Helvetica;fontSize=12;fontColor=default;" vertex="1" parent="fppfiMTQBlnn9rGk8LIh-2">
                    <mxGeometry y="90" width="180" height="30" as="geometry"/>
                </mxCell>
                <mxCell id="fppfiMTQBlnn9rGk8LIh-10" value="" style="shape=partialRectangle;connectable=0;fillColor=none;top=0;left=0;bottom=0;right=0;editable=1;overflow=hidden;whiteSpace=wrap;html=1;strokeColor=default;align=center;verticalAlign=middle;fontFamily=Helvetica;fontSize=12;fontColor=default;" vertex="1" parent="fppfiMTQBlnn9rGk8LIh-9">
                    <mxGeometry width="30" height="30" as="geometry">
                        <mxRectangle width="30" height="30" as="alternateBounds"/>
                    </mxGeometry>
                </mxCell>
                <mxCell id="fppfiMTQBlnn9rGk8LIh-11" value="이름" style="shape=partialRectangle;connectable=0;fillColor=none;top=0;left=0;bottom=0;right=0;align=left;spacingLeft=6;overflow=hidden;whiteSpace=wrap;html=1;strokeColor=default;verticalAlign=middle;fontFamily=Helvetica;fontSize=12;fontColor=default;" vertex="1" parent="fppfiMTQBlnn9rGk8LIh-9">
                    <mxGeometry x="30" width="150" height="30" as="geometry">
                        <mxRectangle width="150" height="30" as="alternateBounds"/>
                    </mxGeometry>
                </mxCell>
                <mxCell id="fppfiMTQBlnn9rGk8LIh-12" value="" style="shape=tableRow;horizontal=0;startSize=0;swimlaneHead=0;swimlaneBody=0;fillColor=none;collapsible=0;dropTarget=0;points=[[0,0.5],[1,0.5]];portConstraint=eastwest;top=0;left=0;right=0;bottom=0;strokeColor=default;align=center;verticalAlign=middle;fontFamily=Helvetica;fontSize=12;fontColor=default;" vertex="1" parent="fppfiMTQBlnn9rGk8LIh-2">
                    <mxGeometry y="120" width="180" height="30" as="geometry"/>
                </mxCell>
                <mxCell id="fppfiMTQBlnn9rGk8LIh-13" value="" style="shape=partialRectangle;connectable=0;fillColor=none;top=0;left=0;bottom=0;right=0;editable=1;overflow=hidden;whiteSpace=wrap;html=1;strokeColor=default;align=center;verticalAlign=middle;fontFamily=Helvetica;fontSize=12;fontColor=default;" vertex="1" parent="fppfiMTQBlnn9rGk8LIh-12">
                    <mxGeometry width="30" height="30" as="geometry">
                        <mxRectangle width="30" height="30" as="alternateBounds"/>
                    </mxGeometry>
                </mxCell>
                <mxCell id="fppfiMTQBlnn9rGk8LIh-14" value="나이" style="shape=partialRectangle;connectable=0;fillColor=none;top=0;left=0;bottom=0;right=0;align=left;spacingLeft=6;overflow=hidden;whiteSpace=wrap;html=1;strokeColor=default;verticalAlign=middle;fontFamily=Helvetica;fontSize=12;fontColor=default;" vertex="1" parent="fppfiMTQBlnn9rGk8LIh-12">
                    <mxGeometry x="30" width="150" height="30" as="geometry">
                        <mxRectangle width="150" height="30" as="alternateBounds"/>
                    </mxGeometry>
                </mxCell>
                <mxCell id="KiDPwNjNNotQnbqtKIZr-1" value="" style="shape=tableRow;horizontal=0;startSize=0;swimlaneHead=0;swimlaneBody=0;fillColor=none;collapsible=0;dropTarget=0;points=[[0,0.5],[1,0.5]];portConstraint=eastwest;top=0;left=0;right=0;bottom=0;strokeColor=default;align=center;verticalAlign=middle;fontFamily=Helvetica;fontSize=12;fontColor=default;" vertex="1" parent="fppfiMTQBlnn9rGk8LIh-2">
                    <mxGeometry y="150" width="180" height="30" as="geometry"/>
                </mxCell>
                <mxCell id="KiDPwNjNNotQnbqtKIZr-2" value="" style="shape=partialRectangle;connectable=0;fillColor=none;top=0;left=0;bottom=0;right=0;editable=1;overflow=hidden;whiteSpace=wrap;html=1;strokeColor=default;align=center;verticalAlign=middle;fontFamily=Helvetica;fontSize=12;fontColor=default;" vertex="1" parent="KiDPwNjNNotQnbqtKIZr-1">
                    <mxGeometry width="30" height="30" as="geometry">
                        <mxRectangle width="30" height="30" as="alternateBounds"/>
                    </mxGeometry>
                </mxCell>
                <mxCell id="KiDPwNjNNotQnbqtKIZr-3" value="직업" style="shape=partialRectangle;connectable=0;fillColor=none;top=0;left=0;bottom=0;right=0;align=left;spacingLeft=6;overflow=hidden;whiteSpace=wrap;html=1;strokeColor=default;verticalAlign=middle;fontFamily=Helvetica;fontSize=12;fontColor=default;" vertex="1" parent="KiDPwNjNNotQnbqtKIZr-1">
                    <mxGeometry x="30" width="150" height="30" as="geometry">
                        <mxRectangle width="150" height="30" as="alternateBounds"/>
                    </mxGeometry>
                </mxCell>
                <mxCell id="6me3C-8sRUbF6KZfYEA0-1" value="제조업체" style="shape=table;startSize=30;container=1;collapsible=1;childLayout=tableLayout;fixedRows=1;rowLines=0;fontStyle=1;align=center;resizeLast=1;html=1;strokeColor=default;verticalAlign=middle;fontFamily=Helvetica;fontSize=12;fontColor=default;fillColor=default;" vertex="1" parent="1">
                    <mxGeometry x="220" y="420" width="180" height="180" as="geometry"/>
                </mxCell>
                <mxCell id="6me3C-8sRUbF6KZfYEA0-2" value="" style="shape=tableRow;horizontal=0;startSize=0;swimlaneHead=0;swimlaneBody=0;fillColor=none;collapsible=0;dropTarget=0;points=[[0,0.5],[1,0.5]];portConstraint=eastwest;top=0;left=0;right=0;bottom=1;strokeColor=default;align=center;verticalAlign=middle;fontFamily=Helvetica;fontSize=12;fontColor=default;" vertex="1" parent="6me3C-8sRUbF6KZfYEA0-1">
                    <mxGeometry y="30" width="180" height="30" as="geometry"/>
                </mxCell>
                <mxCell id="6me3C-8sRUbF6KZfYEA0-3" value="PK" style="shape=partialRectangle;connectable=0;fillColor=none;top=0;left=0;bottom=0;right=0;fontStyle=1;overflow=hidden;whiteSpace=wrap;html=1;strokeColor=default;align=center;verticalAlign=middle;fontFamily=Helvetica;fontSize=12;fontColor=default;" vertex="1" parent="6me3C-8sRUbF6KZfYEA0-2">
                    <mxGeometry width="30" height="30" as="geometry">
                        <mxRectangle width="30" height="30" as="alternateBounds"/>
                    </mxGeometry>
                </mxCell>
                <mxCell id="6me3C-8sRUbF6KZfYEA0-4" value="업체코드" style="shape=partialRectangle;connectable=0;fillColor=none;top=0;left=0;bottom=0;right=0;align=left;spacingLeft=6;fontStyle=5;overflow=hidden;whiteSpace=wrap;html=1;strokeColor=default;verticalAlign=middle;fontFamily=Helvetica;fontSize=12;fontColor=default;" vertex="1" parent="6me3C-8sRUbF6KZfYEA0-2">
                    <mxGeometry x="30" width="150" height="30" as="geometry">
                        <mxRectangle width="150" height="30" as="alternateBounds"/>
                    </mxGeometry>
                </mxCell>
                <mxCell id="6me3C-8sRUbF6KZfYEA0-5" value="" style="shape=tableRow;horizontal=0;startSize=0;swimlaneHead=0;swimlaneBody=0;fillColor=none;collapsible=0;dropTarget=0;points=[[0,0.5],[1,0.5]];portConstraint=eastwest;top=0;left=0;right=0;bottom=0;strokeColor=default;align=center;verticalAlign=middle;fontFamily=Helvetica;fontSize=12;fontColor=default;" vertex="1" parent="6me3C-8sRUbF6KZfYEA0-1">
                    <mxGeometry y="60" width="180" height="30" as="geometry"/>
                </mxCell>
                <mxCell id="6me3C-8sRUbF6KZfYEA0-6" value="" style="shape=partialRectangle;connectable=0;fillColor=none;top=0;left=0;bottom=0;right=0;editable=1;overflow=hidden;whiteSpace=wrap;html=1;strokeColor=default;align=center;verticalAlign=middle;fontFamily=Helvetica;fontSize=12;fontColor=default;" vertex="1" parent="6me3C-8sRUbF6KZfYEA0-5">
                    <mxGeometry width="30" height="30" as="geometry">
                        <mxRectangle width="30" height="30" as="alternateBounds"/>
                    </mxGeometry>
                </mxCell>
                <mxCell id="6me3C-8sRUbF6KZfYEA0-7" value="업체명" style="shape=partialRectangle;connectable=0;fillColor=none;top=0;left=0;bottom=0;right=0;align=left;spacingLeft=6;overflow=hidden;whiteSpace=wrap;html=1;strokeColor=default;verticalAlign=middle;fontFamily=Helvetica;fontSize=12;fontColor=default;" vertex="1" parent="6me3C-8sRUbF6KZfYEA0-5">
                    <mxGeometry x="30" width="150" height="30" as="geometry">
                        <mxRectangle width="150" height="30" as="alternateBounds"/>
                    </mxGeometry>
                </mxCell>
                <mxCell id="6me3C-8sRUbF6KZfYEA0-8" value="" style="shape=tableRow;horizontal=0;startSize=0;swimlaneHead=0;swimlaneBody=0;fillColor=none;collapsible=0;dropTarget=0;points=[[0,0.5],[1,0.5]];portConstraint=eastwest;top=0;left=0;right=0;bottom=0;strokeColor=default;align=center;verticalAlign=middle;fontFamily=Helvetica;fontSize=12;fontColor=default;" vertex="1" parent="6me3C-8sRUbF6KZfYEA0-1">
                    <mxGeometry y="90" width="180" height="30" as="geometry"/>
                </mxCell>
                <mxCell id="6me3C-8sRUbF6KZfYEA0-9" value="" style="shape=partialRectangle;connectable=0;fillColor=none;top=0;left=0;bottom=0;right=0;editable=1;overflow=hidden;whiteSpace=wrap;html=1;strokeColor=default;align=center;verticalAlign=middle;fontFamily=Helvetica;fontSize=12;fontColor=default;" vertex="1" parent="6me3C-8sRUbF6KZfYEA0-8">
                    <mxGeometry width="30" height="30" as="geometry">
                        <mxRectangle width="30" height="30" as="alternateBounds"/>
                    </mxGeometry>
                </mxCell>
                <mxCell id="6me3C-8sRUbF6KZfYEA0-10" value="전화번호" style="shape=partialRectangle;connectable=0;fillColor=none;top=0;left=0;bottom=0;right=0;align=left;spacingLeft=6;overflow=hidden;whiteSpace=wrap;html=1;strokeColor=default;verticalAlign=middle;fontFamily=Helvetica;fontSize=12;fontColor=default;" vertex="1" parent="6me3C-8sRUbF6KZfYEA0-8">
                    <mxGeometry x="30" width="150" height="30" as="geometry">
                        <mxRectangle width="150" height="30" as="alternateBounds"/>
                    </mxGeometry>
                </mxCell>
                <mxCell id="6me3C-8sRUbF6KZfYEA0-11" value="" style="shape=tableRow;horizontal=0;startSize=0;swimlaneHead=0;swimlaneBody=0;fillColor=none;collapsible=0;dropTarget=0;points=[[0,0.5],[1,0.5]];portConstraint=eastwest;top=0;left=0;right=0;bottom=0;strokeColor=default;align=center;verticalAlign=middle;fontFamily=Helvetica;fontSize=12;fontColor=default;" vertex="1" parent="6me3C-8sRUbF6KZfYEA0-1">
                    <mxGeometry y="120" width="180" height="30" as="geometry"/>
                </mxCell>
                <mxCell id="6me3C-8sRUbF6KZfYEA0-12" value="" style="shape=partialRectangle;connectable=0;fillColor=none;top=0;left=0;bottom=0;right=0;editable=1;overflow=hidden;whiteSpace=wrap;html=1;strokeColor=default;align=center;verticalAlign=middle;fontFamily=Helvetica;fontSize=12;fontColor=default;" vertex="1" parent="6me3C-8sRUbF6KZfYEA0-11">
                    <mxGeometry width="30" height="30" as="geometry">
                        <mxRectangle width="30" height="30" as="alternateBounds"/>
                    </mxGeometry>
                </mxCell>
                <mxCell id="6me3C-8sRUbF6KZfYEA0-13" value="위치" style="shape=partialRectangle;connectable=0;fillColor=none;top=0;left=0;bottom=0;right=0;align=left;spacingLeft=6;overflow=hidden;whiteSpace=wrap;html=1;strokeColor=default;verticalAlign=middle;fontFamily=Helvetica;fontSize=12;fontColor=default;" vertex="1" parent="6me3C-8sRUbF6KZfYEA0-11">
                    <mxGeometry x="30" width="150" height="30" as="geometry">
                        <mxRectangle width="150" height="30" as="alternateBounds"/>
                    </mxGeometry>
                </mxCell>
                <mxCell id="6me3C-8sRUbF6KZfYEA0-14" value="" style="shape=tableRow;horizontal=0;startSize=0;swimlaneHead=0;swimlaneBody=0;fillColor=none;collapsible=0;dropTarget=0;points=[[0,0.5],[1,0.5]];portConstraint=eastwest;top=0;left=0;right=0;bottom=0;strokeColor=default;align=center;verticalAlign=middle;fontFamily=Helvetica;fontSize=12;fontColor=default;" vertex="1" parent="6me3C-8sRUbF6KZfYEA0-1">
                    <mxGeometry y="150" width="180" height="30" as="geometry"/>
                </mxCell>
                <mxCell id="6me3C-8sRUbF6KZfYEA0-15" value="" style="shape=partialRectangle;connectable=0;fillColor=none;top=0;left=0;bottom=0;right=0;editable=1;overflow=hidden;whiteSpace=wrap;html=1;strokeColor=default;align=center;verticalAlign=middle;fontFamily=Helvetica;fontSize=12;fontColor=default;" vertex="1" parent="6me3C-8sRUbF6KZfYEA0-14">
                    <mxGeometry width="30" height="30" as="geometry">
                        <mxRectangle width="30" height="30" as="alternateBounds"/>
                    </mxGeometry>
                </mxCell>
                <mxCell id="6me3C-8sRUbF6KZfYEA0-16" value="담당자" style="shape=partialRectangle;connectable=0;fillColor=none;top=0;left=0;bottom=0;right=0;align=left;spacingLeft=6;overflow=hidden;whiteSpace=wrap;html=1;strokeColor=default;verticalAlign=middle;fontFamily=Helvetica;fontSize=12;fontColor=default;" vertex="1" parent="6me3C-8sRUbF6KZfYEA0-14">
                    <mxGeometry x="30" width="150" height="30" as="geometry">
                        <mxRectangle width="150" height="30" as="alternateBounds"/>
                    </mxGeometry>
                </mxCell>
                <mxCell id="-Qd4Dfjd81ll4FltJldS-1" value="게시글" style="shape=table;startSize=30;container=1;collapsible=1;childLayout=tableLayout;fixedRows=1;rowLines=0;fontStyle=1;align=center;resizeLast=1;html=1;strokeColor=default;verticalAlign=middle;fontFamily=Helvetica;fontSize=12;fontColor=default;fillColor=default;" vertex="1" parent="1">
                    <mxGeometry x="210" y="200" width="180" height="180" as="geometry"/>
                </mxCell>
                <mxCell id="-Qd4Dfjd81ll4FltJldS-2" value="" style="shape=tableRow;horizontal=0;startSize=0;swimlaneHead=0;swimlaneBody=0;fillColor=none;collapsible=0;dropTarget=0;points=[[0,0.5],[1,0.5]];portConstraint=eastwest;top=0;left=0;right=0;bottom=1;strokeColor=default;align=center;verticalAlign=middle;fontFamily=Helvetica;fontSize=12;fontColor=default;" vertex="1" parent="-Qd4Dfjd81ll4FltJldS-1">
                    <mxGeometry y="30" width="180" height="30" as="geometry"/>
                </mxCell>
                <mxCell id="-Qd4Dfjd81ll4FltJldS-3" value="PK" style="shape=partialRectangle;connectable=0;fillColor=none;top=0;left=0;bottom=0;right=0;fontStyle=1;overflow=hidden;whiteSpace=wrap;html=1;strokeColor=default;align=center;verticalAlign=middle;fontFamily=Helvetica;fontSize=12;fontColor=default;" vertex="1" parent="-Qd4Dfjd81ll4FltJldS-2">
                    <mxGeometry width="30" height="30" as="geometry">
                        <mxRectangle width="30" height="30" as="alternateBounds"/>
                    </mxGeometry>
                </mxCell>
                <mxCell id="-Qd4Dfjd81ll4FltJldS-4" value="글번호" style="shape=partialRectangle;connectable=0;fillColor=none;top=0;left=0;bottom=0;right=0;align=left;spacingLeft=6;fontStyle=5;overflow=hidden;whiteSpace=wrap;html=1;strokeColor=default;verticalAlign=middle;fontFamily=Helvetica;fontSize=12;fontColor=default;" vertex="1" parent="-Qd4Dfjd81ll4FltJldS-2">
                    <mxGeometry x="30" width="150" height="30" as="geometry">
                        <mxRectangle width="150" height="30" as="alternateBounds"/>
                    </mxGeometry>
                </mxCell>
                <mxCell id="wHpNS1aZbaEMYzdrkepb-63" value="" style="shape=tableRow;horizontal=0;startSize=0;swimlaneHead=0;swimlaneBody=0;fillColor=none;collapsible=0;dropTarget=0;points=[[0,0.5],[1,0.5]];portConstraint=eastwest;top=0;left=0;right=0;bottom=1;strokeColor=default;align=center;verticalAlign=middle;fontFamily=Helvetica;fontSize=12;fontColor=default;" vertex="1" parent="-Qd4Dfjd81ll4FltJldS-1">
                    <mxGeometry y="60" width="180" height="30" as="geometry"/>
                </mxCell>
                <mxCell id="wHpNS1aZbaEMYzdrkepb-64" value="FK" style="shape=partialRectangle;connectable=0;fillColor=none;top=0;left=0;bottom=0;right=0;fontStyle=1;overflow=hidden;whiteSpace=wrap;html=1;strokeColor=default;align=center;verticalAlign=middle;fontFamily=Helvetica;fontSize=12;fontColor=default;" vertex="1" parent="wHpNS1aZbaEMYzdrkepb-63">
                    <mxGeometry width="30" height="30" as="geometry">
                        <mxRectangle width="30" height="30" as="alternateBounds"/>
                    </mxGeometry>
                </mxCell>
                <mxCell id="wHpNS1aZbaEMYzdrkepb-65" value="회원아이디" style="shape=partialRectangle;connectable=0;fillColor=none;top=0;left=0;bottom=0;right=0;align=left;spacingLeft=6;fontStyle=5;overflow=hidden;whiteSpace=wrap;html=1;strokeColor=default;verticalAlign=middle;fontFamily=Helvetica;fontSize=12;fontColor=default;" vertex="1" parent="wHpNS1aZbaEMYzdrkepb-63">
                    <mxGeometry x="30" width="150" height="30" as="geometry">
                        <mxRectangle width="150" height="30" as="alternateBounds"/>
                    </mxGeometry>
                </mxCell>
                <mxCell id="-Qd4Dfjd81ll4FltJldS-11" value="" style="shape=tableRow;horizontal=0;startSize=0;swimlaneHead=0;swimlaneBody=0;fillColor=none;collapsible=0;dropTarget=0;points=[[0,0.5],[1,0.5]];portConstraint=eastwest;top=0;left=0;right=0;bottom=0;strokeColor=default;align=center;verticalAlign=middle;fontFamily=Helvetica;fontSize=12;fontColor=default;" vertex="1" parent="-Qd4Dfjd81ll4FltJldS-1">
                    <mxGeometry y="90" width="180" height="30" as="geometry"/>
                </mxCell>
                <mxCell id="-Qd4Dfjd81ll4FltJldS-12" value="" style="shape=partialRectangle;connectable=0;fillColor=none;top=0;left=0;bottom=0;right=0;editable=1;overflow=hidden;whiteSpace=wrap;html=1;strokeColor=default;align=center;verticalAlign=middle;fontFamily=Helvetica;fontSize=12;fontColor=default;" vertex="1" parent="-Qd4Dfjd81ll4FltJldS-11">
                    <mxGeometry width="30" height="30" as="geometry">
                        <mxRectangle width="30" height="30" as="alternateBounds"/>
                    </mxGeometry>
                </mxCell>
                <mxCell id="-Qd4Dfjd81ll4FltJldS-13" value="내용" style="shape=partialRectangle;connectable=0;fillColor=none;top=0;left=0;bottom=0;right=0;align=left;spacingLeft=6;overflow=hidden;whiteSpace=wrap;html=1;strokeColor=default;verticalAlign=middle;fontFamily=Helvetica;fontSize=12;fontColor=default;" vertex="1" parent="-Qd4Dfjd81ll4FltJldS-11">
                    <mxGeometry x="30" width="150" height="30" as="geometry">
                        <mxRectangle width="150" height="30" as="alternateBounds"/>
                    </mxGeometry>
                </mxCell>
                <mxCell id="-Qd4Dfjd81ll4FltJldS-14" value="" style="shape=tableRow;horizontal=0;startSize=0;swimlaneHead=0;swimlaneBody=0;fillColor=none;collapsible=0;dropTarget=0;points=[[0,0.5],[1,0.5]];portConstraint=eastwest;top=0;left=0;right=0;bottom=0;strokeColor=default;align=center;verticalAlign=middle;fontFamily=Helvetica;fontSize=12;fontColor=default;" vertex="1" parent="-Qd4Dfjd81ll4FltJldS-1">
                    <mxGeometry y="120" width="180" height="30" as="geometry"/>
                </mxCell>
                <mxCell id="-Qd4Dfjd81ll4FltJldS-15" value="" style="shape=partialRectangle;connectable=0;fillColor=none;top=0;left=0;bottom=0;right=0;editable=1;overflow=hidden;whiteSpace=wrap;html=1;strokeColor=default;align=center;verticalAlign=middle;fontFamily=Helvetica;fontSize=12;fontColor=default;" vertex="1" parent="-Qd4Dfjd81ll4FltJldS-14">
                    <mxGeometry width="30" height="30" as="geometry">
                        <mxRectangle width="30" height="30" as="alternateBounds"/>
                    </mxGeometry>
                </mxCell>
                <mxCell id="-Qd4Dfjd81ll4FltJldS-16" value="작성일" style="shape=partialRectangle;connectable=0;fillColor=none;top=0;left=0;bottom=0;right=0;align=left;spacingLeft=6;overflow=hidden;whiteSpace=wrap;html=1;strokeColor=default;verticalAlign=middle;fontFamily=Helvetica;fontSize=12;fontColor=default;" vertex="1" parent="-Qd4Dfjd81ll4FltJldS-14">
                    <mxGeometry x="30" width="150" height="30" as="geometry">
                        <mxRectangle width="150" height="30" as="alternateBounds"/>
                    </mxGeometry>
                </mxCell>
                <mxCell id="-Qd4Dfjd81ll4FltJldS-8" value="" style="shape=tableRow;horizontal=0;startSize=0;swimlaneHead=0;swimlaneBody=0;fillColor=none;collapsible=0;dropTarget=0;points=[[0,0.5],[1,0.5]];portConstraint=eastwest;top=0;left=0;right=0;bottom=0;strokeColor=default;align=center;verticalAlign=middle;fontFamily=Helvetica;fontSize=12;fontColor=default;" vertex="1" parent="-Qd4Dfjd81ll4FltJldS-1">
                    <mxGeometry y="150" width="180" height="30" as="geometry"/>
                </mxCell>
                <mxCell id="-Qd4Dfjd81ll4FltJldS-9" value="" style="shape=partialRectangle;connectable=0;fillColor=none;top=0;left=0;bottom=0;right=0;editable=1;overflow=hidden;whiteSpace=wrap;html=1;strokeColor=default;align=center;verticalAlign=middle;fontFamily=Helvetica;fontSize=12;fontColor=default;" vertex="1" parent="-Qd4Dfjd81ll4FltJldS-8">
                    <mxGeometry width="30" height="30" as="geometry">
                        <mxRectangle width="30" height="30" as="alternateBounds"/>
                    </mxGeometry>
                </mxCell>
                <mxCell id="-Qd4Dfjd81ll4FltJldS-10" value="제목" style="shape=partialRectangle;connectable=0;fillColor=none;top=0;left=0;bottom=0;right=0;align=left;spacingLeft=6;overflow=hidden;whiteSpace=wrap;html=1;strokeColor=default;verticalAlign=middle;fontFamily=Helvetica;fontSize=12;fontColor=default;" vertex="1" parent="-Qd4Dfjd81ll4FltJldS-8">
                    <mxGeometry x="30" width="150" height="30" as="geometry">
                        <mxRectangle width="150" height="30" as="alternateBounds"/>
                    </mxGeometry>
                </mxCell>
                <mxCell id="xpotKcDEAo2xzTlbNBnj-14" value="상품" style="shape=table;startSize=30;container=1;collapsible=1;childLayout=tableLayout;fixedRows=1;rowLines=0;fontStyle=1;align=center;resizeLast=1;html=1;strokeColor=default;verticalAlign=middle;fontFamily=Helvetica;fontSize=12;fontColor=default;fillColor=default;" vertex="1" parent="1">
                    <mxGeometry x="410" y="-80" width="180" height="240" as="geometry"/>
                </mxCell>
                <mxCell id="xpotKcDEAo2xzTlbNBnj-15" value="" style="shape=tableRow;horizontal=0;startSize=0;swimlaneHead=0;swimlaneBody=0;fillColor=none;collapsible=0;dropTarget=0;points=[[0,0.5],[1,0.5]];portConstraint=eastwest;top=0;left=0;right=0;bottom=1;strokeColor=default;align=center;verticalAlign=middle;fontFamily=Helvetica;fontSize=12;fontColor=default;" vertex="1" parent="xpotKcDEAo2xzTlbNBnj-14">
                    <mxGeometry y="30" width="180" height="30" as="geometry"/>
                </mxCell>
                <mxCell id="xpotKcDEAo2xzTlbNBnj-16" value="PK" style="shape=partialRectangle;connectable=0;fillColor=none;top=0;left=0;bottom=0;right=0;fontStyle=1;overflow=hidden;whiteSpace=wrap;html=1;strokeColor=default;align=center;verticalAlign=middle;fontFamily=Helvetica;fontSize=12;fontColor=default;" vertex="1" parent="xpotKcDEAo2xzTlbNBnj-15">
                    <mxGeometry width="30" height="30" as="geometry">
                        <mxRectangle width="30" height="30" as="alternateBounds"/>
                    </mxGeometry>
                </mxCell>
                <mxCell id="xpotKcDEAo2xzTlbNBnj-17" value="상품번호" style="shape=partialRectangle;connectable=0;fillColor=none;top=0;left=0;bottom=0;right=0;align=left;spacingLeft=6;fontStyle=5;overflow=hidden;whiteSpace=wrap;html=1;strokeColor=default;verticalAlign=middle;fontFamily=Helvetica;fontSize=12;fontColor=default;" vertex="1" parent="xpotKcDEAo2xzTlbNBnj-15">
                    <mxGeometry x="30" width="150" height="30" as="geometry">
                        <mxRectangle width="150" height="30" as="alternateBounds"/>
                    </mxGeometry>
                </mxCell>
                <mxCell id="wHpNS1aZbaEMYzdrkepb-57" value="" style="shape=tableRow;horizontal=0;startSize=0;swimlaneHead=0;swimlaneBody=0;fillColor=none;collapsible=0;dropTarget=0;points=[[0,0.5],[1,0.5]];portConstraint=eastwest;top=0;left=0;right=0;bottom=1;strokeColor=default;align=center;verticalAlign=middle;fontFamily=Helvetica;fontSize=12;fontColor=default;" vertex="1" parent="xpotKcDEAo2xzTlbNBnj-14">
                    <mxGeometry y="60" width="180" height="30" as="geometry"/>
                </mxCell>
                <mxCell id="wHpNS1aZbaEMYzdrkepb-58" value="FK" style="shape=partialRectangle;connectable=0;fillColor=none;top=0;left=0;bottom=0;right=0;fontStyle=1;overflow=hidden;whiteSpace=wrap;html=1;strokeColor=default;align=center;verticalAlign=middle;fontFamily=Helvetica;fontSize=12;fontColor=default;" vertex="1" parent="wHpNS1aZbaEMYzdrkepb-57">
                    <mxGeometry width="30" height="30" as="geometry">
                        <mxRectangle width="30" height="30" as="alternateBounds"/>
                    </mxGeometry>
                </mxCell>
                <mxCell id="wHpNS1aZbaEMYzdrkepb-59" value="업체코드" style="shape=partialRectangle;connectable=0;fillColor=none;top=0;left=0;bottom=0;right=0;align=left;spacingLeft=6;fontStyle=5;overflow=hidden;whiteSpace=wrap;html=1;strokeColor=default;verticalAlign=middle;fontFamily=Helvetica;fontSize=12;fontColor=default;" vertex="1" parent="wHpNS1aZbaEMYzdrkepb-57">
                    <mxGeometry x="30" width="150" height="30" as="geometry">
                        <mxRectangle width="150" height="30" as="alternateBounds"/>
                    </mxGeometry>
                </mxCell>
                <mxCell id="xpotKcDEAo2xzTlbNBnj-21" value="" style="shape=tableRow;horizontal=0;startSize=0;swimlaneHead=0;swimlaneBody=0;fillColor=none;collapsible=0;dropTarget=0;points=[[0,0.5],[1,0.5]];portConstraint=eastwest;top=0;left=0;right=0;bottom=0;strokeColor=default;align=center;verticalAlign=middle;fontFamily=Helvetica;fontSize=12;fontColor=default;" vertex="1" parent="xpotKcDEAo2xzTlbNBnj-14">
                    <mxGeometry y="90" width="180" height="30" as="geometry"/>
                </mxCell>
                <mxCell id="xpotKcDEAo2xzTlbNBnj-22" value="" style="shape=partialRectangle;connectable=0;fillColor=none;top=0;left=0;bottom=0;right=0;editable=1;overflow=hidden;whiteSpace=wrap;html=1;strokeColor=default;align=center;verticalAlign=middle;fontFamily=Helvetica;fontSize=12;fontColor=default;" vertex="1" parent="xpotKcDEAo2xzTlbNBnj-21">
                    <mxGeometry width="30" height="30" as="geometry">
                        <mxRectangle width="30" height="30" as="alternateBounds"/>
                    </mxGeometry>
                </mxCell>
                <mxCell id="xpotKcDEAo2xzTlbNBnj-23" value="상품명" style="shape=partialRectangle;connectable=0;fillColor=none;top=0;left=0;bottom=0;right=0;align=left;spacingLeft=6;overflow=hidden;whiteSpace=wrap;html=1;strokeColor=default;verticalAlign=middle;fontFamily=Helvetica;fontSize=12;fontColor=default;" vertex="1" parent="xpotKcDEAo2xzTlbNBnj-21">
                    <mxGeometry x="30" width="150" height="30" as="geometry">
                        <mxRectangle width="150" height="30" as="alternateBounds"/>
                    </mxGeometry>
                </mxCell>
                <mxCell id="xpotKcDEAo2xzTlbNBnj-24" value="" style="shape=tableRow;horizontal=0;startSize=0;swimlaneHead=0;swimlaneBody=0;fillColor=none;collapsible=0;dropTarget=0;points=[[0,0.5],[1,0.5]];portConstraint=eastwest;top=0;left=0;right=0;bottom=0;strokeColor=default;align=center;verticalAlign=middle;fontFamily=Helvetica;fontSize=12;fontColor=default;" vertex="1" parent="xpotKcDEAo2xzTlbNBnj-14">
                    <mxGeometry y="120" width="180" height="30" as="geometry"/>
                </mxCell>
                <mxCell id="xpotKcDEAo2xzTlbNBnj-25" value="" style="shape=partialRectangle;connectable=0;fillColor=none;top=0;left=0;bottom=0;right=0;editable=1;overflow=hidden;whiteSpace=wrap;html=1;strokeColor=default;align=center;verticalAlign=middle;fontFamily=Helvetica;fontSize=12;fontColor=default;" vertex="1" parent="xpotKcDEAo2xzTlbNBnj-24">
                    <mxGeometry width="30" height="30" as="geometry">
                        <mxRectangle width="30" height="30" as="alternateBounds"/>
                    </mxGeometry>
                </mxCell>
                <mxCell id="xpotKcDEAo2xzTlbNBnj-26" value="재고량" style="shape=partialRectangle;connectable=0;fillColor=none;top=0;left=0;bottom=0;right=0;align=left;spacingLeft=6;overflow=hidden;whiteSpace=wrap;html=1;strokeColor=default;verticalAlign=middle;fontFamily=Helvetica;fontSize=12;fontColor=default;" vertex="1" parent="xpotKcDEAo2xzTlbNBnj-24">
                    <mxGeometry x="30" width="150" height="30" as="geometry">
                        <mxRectangle width="150" height="30" as="alternateBounds"/>
                    </mxGeometry>
                </mxCell>
                <mxCell id="wHpNS1aZbaEMYzdrkepb-1" value="" style="shape=tableRow;horizontal=0;startSize=0;swimlaneHead=0;swimlaneBody=0;fillColor=none;collapsible=0;dropTarget=0;points=[[0,0.5],[1,0.5]];portConstraint=eastwest;top=0;left=0;right=0;bottom=0;strokeColor=default;align=center;verticalAlign=middle;fontFamily=Helvetica;fontSize=12;fontColor=default;" vertex="1" parent="xpotKcDEAo2xzTlbNBnj-14">
                    <mxGeometry y="150" width="180" height="30" as="geometry"/>
                </mxCell>
                <mxCell id="wHpNS1aZbaEMYzdrkepb-2" value="" style="shape=partialRectangle;connectable=0;fillColor=none;top=0;left=0;bottom=0;right=0;editable=1;overflow=hidden;whiteSpace=wrap;html=1;strokeColor=default;align=center;verticalAlign=middle;fontFamily=Helvetica;fontSize=12;fontColor=default;" vertex="1" parent="wHpNS1aZbaEMYzdrkepb-1">
                    <mxGeometry width="30" height="30" as="geometry">
                        <mxRectangle width="30" height="30" as="alternateBounds"/>
                    </mxGeometry>
                </mxCell>
                <mxCell id="wHpNS1aZbaEMYzdrkepb-3" value="단가" style="shape=partialRectangle;connectable=0;fillColor=none;top=0;left=0;bottom=0;right=0;align=left;spacingLeft=6;overflow=hidden;whiteSpace=wrap;html=1;strokeColor=default;verticalAlign=middle;fontFamily=Helvetica;fontSize=12;fontColor=default;" vertex="1" parent="wHpNS1aZbaEMYzdrkepb-1">
                    <mxGeometry x="30" width="150" height="30" as="geometry">
                        <mxRectangle width="150" height="30" as="alternateBounds"/>
                    </mxGeometry>
                </mxCell>
                <mxCell id="wHpNS1aZbaEMYzdrkepb-32" value="" style="shape=tableRow;horizontal=0;startSize=0;swimlaneHead=0;swimlaneBody=0;fillColor=none;collapsible=0;dropTarget=0;points=[[0,0.5],[1,0.5]];portConstraint=eastwest;top=0;left=0;right=0;bottom=0;strokeColor=default;align=center;verticalAlign=middle;fontFamily=Helvetica;fontSize=12;fontColor=default;" vertex="1" parent="xpotKcDEAo2xzTlbNBnj-14">
                    <mxGeometry y="180" width="180" height="30" as="geometry"/>
                </mxCell>
                <mxCell id="wHpNS1aZbaEMYzdrkepb-33" value="" style="shape=partialRectangle;connectable=0;fillColor=none;top=0;left=0;bottom=0;right=0;editable=1;overflow=hidden;whiteSpace=wrap;html=1;strokeColor=default;align=center;verticalAlign=middle;fontFamily=Helvetica;fontSize=12;fontColor=default;" vertex="1" parent="wHpNS1aZbaEMYzdrkepb-32">
                    <mxGeometry width="30" height="30" as="geometry">
                        <mxRectangle width="30" height="30" as="alternateBounds"/>
                    </mxGeometry>
                </mxCell>
                <mxCell id="wHpNS1aZbaEMYzdrkepb-34" value="공급일자" style="shape=partialRectangle;connectable=0;fillColor=none;top=0;left=0;bottom=0;right=0;align=left;spacingLeft=6;overflow=hidden;whiteSpace=wrap;html=1;strokeColor=default;verticalAlign=middle;fontFamily=Helvetica;fontSize=12;fontColor=default;" vertex="1" parent="wHpNS1aZbaEMYzdrkepb-32">
                    <mxGeometry x="30" width="150" height="30" as="geometry">
                        <mxRectangle width="150" height="30" as="alternateBounds"/>
                    </mxGeometry>
                </mxCell>
                <mxCell id="wHpNS1aZbaEMYzdrkepb-35" value="" style="shape=tableRow;horizontal=0;startSize=0;swimlaneHead=0;swimlaneBody=0;fillColor=none;collapsible=0;dropTarget=0;points=[[0,0.5],[1,0.5]];portConstraint=eastwest;top=0;left=0;right=0;bottom=0;strokeColor=default;align=center;verticalAlign=middle;fontFamily=Helvetica;fontSize=12;fontColor=default;" vertex="1" parent="xpotKcDEAo2xzTlbNBnj-14">
                    <mxGeometry y="210" width="180" height="30" as="geometry"/>
                </mxCell>
                <mxCell id="wHpNS1aZbaEMYzdrkepb-36" value="" style="shape=partialRectangle;connectable=0;fillColor=none;top=0;left=0;bottom=0;right=0;editable=1;overflow=hidden;whiteSpace=wrap;html=1;strokeColor=default;align=center;verticalAlign=middle;fontFamily=Helvetica;fontSize=12;fontColor=default;" vertex="1" parent="wHpNS1aZbaEMYzdrkepb-35">
                    <mxGeometry width="30" height="30" as="geometry">
                        <mxRectangle width="30" height="30" as="alternateBounds"/>
                    </mxGeometry>
                </mxCell>
                <mxCell id="wHpNS1aZbaEMYzdrkepb-37" value="공급량" style="shape=partialRectangle;connectable=0;fillColor=none;top=0;left=0;bottom=0;right=0;align=left;spacingLeft=6;overflow=hidden;whiteSpace=wrap;html=1;strokeColor=default;verticalAlign=middle;fontFamily=Helvetica;fontSize=12;fontColor=default;" vertex="1" parent="wHpNS1aZbaEMYzdrkepb-35">
                    <mxGeometry x="30" width="150" height="30" as="geometry">
                        <mxRectangle width="150" height="30" as="alternateBounds"/>
                    </mxGeometry>
                </mxCell>
                <mxCell id="xpotKcDEAo2xzTlbNBnj-40" value="주문" style="shape=table;startSize=30;container=1;collapsible=1;childLayout=tableLayout;fixedRows=1;rowLines=0;fontStyle=1;align=center;resizeLast=1;html=1;whiteSpace=wrap;strokeColor=default;verticalAlign=middle;fontFamily=Helvetica;fontSize=12;fontColor=default;fillColor=default;" vertex="1" parent="1">
                    <mxGeometry x="200" y="-80" width="180" height="240" as="geometry"/>
                </mxCell>
                <mxCell id="xpotKcDEAo2xzTlbNBnj-41" value="" style="shape=tableRow;horizontal=0;startSize=0;swimlaneHead=0;swimlaneBody=0;fillColor=none;collapsible=0;dropTarget=0;points=[[0,0.5],[1,0.5]];portConstraint=eastwest;top=0;left=0;right=0;bottom=0;html=1;strokeColor=default;align=center;verticalAlign=middle;fontFamily=Helvetica;fontSize=12;fontColor=default;" vertex="1" parent="xpotKcDEAo2xzTlbNBnj-40">
                    <mxGeometry y="30" width="180" height="30" as="geometry"/>
                </mxCell>
                <mxCell id="xpotKcDEAo2xzTlbNBnj-42" value="PK" style="shape=partialRectangle;connectable=0;fillColor=none;top=0;left=0;bottom=0;right=0;fontStyle=1;overflow=hidden;html=1;whiteSpace=wrap;strokeColor=default;align=center;verticalAlign=middle;fontFamily=Helvetica;fontSize=12;fontColor=default;" vertex="1" parent="xpotKcDEAo2xzTlbNBnj-41">
                    <mxGeometry width="60" height="30" as="geometry">
                        <mxRectangle width="60" height="30" as="alternateBounds"/>
                    </mxGeometry>
                </mxCell>
                <mxCell id="xpotKcDEAo2xzTlbNBnj-43" value="주문번호" style="shape=partialRectangle;connectable=0;fillColor=none;top=0;left=0;bottom=0;right=0;align=left;spacingLeft=6;fontStyle=5;overflow=hidden;html=1;whiteSpace=wrap;strokeColor=default;verticalAlign=middle;fontFamily=Helvetica;fontSize=12;fontColor=default;" vertex="1" parent="xpotKcDEAo2xzTlbNBnj-41">
                    <mxGeometry x="60" width="120" height="30" as="geometry">
                        <mxRectangle width="120" height="30" as="alternateBounds"/>
                    </mxGeometry>
                </mxCell>
                <mxCell id="xpotKcDEAo2xzTlbNBnj-44" value="" style="shape=tableRow;horizontal=0;startSize=0;swimlaneHead=0;swimlaneBody=0;fillColor=none;collapsible=0;dropTarget=0;points=[[0,0.5],[1,0.5]];portConstraint=eastwest;top=0;left=0;right=0;bottom=1;html=1;strokeColor=default;align=center;verticalAlign=middle;fontFamily=Helvetica;fontSize=12;fontColor=default;" vertex="1" parent="xpotKcDEAo2xzTlbNBnj-40">
                    <mxGeometry y="60" width="180" height="30" as="geometry"/>
                </mxCell>
                <mxCell id="xpotKcDEAo2xzTlbNBnj-45" value="FK" style="shape=partialRectangle;connectable=0;fillColor=none;top=0;left=0;bottom=0;right=0;fontStyle=1;overflow=hidden;html=1;whiteSpace=wrap;strokeColor=default;align=center;verticalAlign=middle;fontFamily=Helvetica;fontSize=12;fontColor=default;" vertex="1" parent="xpotKcDEAo2xzTlbNBnj-44">
                    <mxGeometry width="60" height="30" as="geometry">
                        <mxRectangle width="60" height="30" as="alternateBounds"/>
                    </mxGeometry>
                </mxCell>
                <mxCell id="xpotKcDEAo2xzTlbNBnj-46" value="상품번호" style="shape=partialRectangle;connectable=0;fillColor=none;top=0;left=0;bottom=0;right=0;align=left;spacingLeft=6;fontStyle=5;overflow=hidden;html=1;whiteSpace=wrap;strokeColor=default;verticalAlign=middle;fontFamily=Helvetica;fontSize=12;fontColor=default;" vertex="1" parent="xpotKcDEAo2xzTlbNBnj-44">
                    <mxGeometry x="60" width="120" height="30" as="geometry">
                        <mxRectangle width="120" height="30" as="alternateBounds"/>
                    </mxGeometry>
                </mxCell>
                <mxCell id="wHpNS1aZbaEMYzdrkepb-54" value="" style="shape=tableRow;horizontal=0;startSize=0;swimlaneHead=0;swimlaneBody=0;fillColor=none;collapsible=0;dropTarget=0;points=[[0,0.5],[1,0.5]];portConstraint=eastwest;top=0;left=0;right=0;bottom=1;html=1;strokeColor=default;align=center;verticalAlign=middle;fontFamily=Helvetica;fontSize=12;fontColor=default;" vertex="1" parent="xpotKcDEAo2xzTlbNBnj-40">
                    <mxGeometry y="90" width="180" height="30" as="geometry"/>
                </mxCell>
                <mxCell id="wHpNS1aZbaEMYzdrkepb-55" value="FK" style="shape=partialRectangle;connectable=0;fillColor=none;top=0;left=0;bottom=0;right=0;fontStyle=1;overflow=hidden;html=1;whiteSpace=wrap;strokeColor=default;align=center;verticalAlign=middle;fontFamily=Helvetica;fontSize=12;fontColor=default;" vertex="1" parent="wHpNS1aZbaEMYzdrkepb-54">
                    <mxGeometry width="60" height="30" as="geometry">
                        <mxRectangle width="60" height="30" as="alternateBounds"/>
                    </mxGeometry>
                </mxCell>
                <mxCell id="wHpNS1aZbaEMYzdrkepb-56" value="회원아이디" style="shape=partialRectangle;connectable=0;fillColor=none;top=0;left=0;bottom=0;right=0;align=left;spacingLeft=6;fontStyle=5;overflow=hidden;html=1;whiteSpace=wrap;strokeColor=default;verticalAlign=middle;fontFamily=Helvetica;fontSize=12;fontColor=default;" vertex="1" parent="wHpNS1aZbaEMYzdrkepb-54">
                    <mxGeometry x="60" width="120" height="30" as="geometry">
                        <mxRectangle width="120" height="30" as="alternateBounds"/>
                    </mxGeometry>
                </mxCell>
                <mxCell id="xpotKcDEAo2xzTlbNBnj-47" value="" style="shape=tableRow;horizontal=0;startSize=0;swimlaneHead=0;swimlaneBody=0;fillColor=none;collapsible=0;dropTarget=0;points=[[0,0.5],[1,0.5]];portConstraint=eastwest;top=0;left=0;right=0;bottom=0;html=1;strokeColor=default;align=center;verticalAlign=middle;fontFamily=Helvetica;fontSize=12;fontColor=default;" vertex="1" parent="xpotKcDEAo2xzTlbNBnj-40">
                    <mxGeometry y="120" width="180" height="30" as="geometry"/>
                </mxCell>
                <mxCell id="xpotKcDEAo2xzTlbNBnj-48" value="" style="shape=partialRectangle;connectable=0;fillColor=none;top=0;left=0;bottom=0;right=0;editable=1;overflow=hidden;html=1;whiteSpace=wrap;strokeColor=default;align=center;verticalAlign=middle;fontFamily=Helvetica;fontSize=12;fontColor=default;" vertex="1" parent="xpotKcDEAo2xzTlbNBnj-47">
                    <mxGeometry width="60" height="30" as="geometry">
                        <mxRectangle width="60" height="30" as="alternateBounds"/>
                    </mxGeometry>
                </mxCell>
                <mxCell id="xpotKcDEAo2xzTlbNBnj-49" value="주문수량" style="shape=partialRectangle;connectable=0;fillColor=none;top=0;left=0;bottom=0;right=0;align=left;spacingLeft=6;overflow=hidden;html=1;whiteSpace=wrap;strokeColor=default;verticalAlign=middle;fontFamily=Helvetica;fontSize=12;fontColor=default;" vertex="1" parent="xpotKcDEAo2xzTlbNBnj-47">
                    <mxGeometry x="60" width="120" height="30" as="geometry">
                        <mxRectangle width="120" height="30" as="alternateBounds"/>
                    </mxGeometry>
                </mxCell>
                <mxCell id="xpotKcDEAo2xzTlbNBnj-53" value="" style="shape=tableRow;horizontal=0;startSize=0;swimlaneHead=0;swimlaneBody=0;fillColor=none;collapsible=0;dropTarget=0;points=[[0,0.5],[1,0.5]];portConstraint=eastwest;top=0;left=0;right=0;bottom=0;html=1;strokeColor=default;align=center;verticalAlign=middle;fontFamily=Helvetica;fontSize=12;fontColor=default;" vertex="1" parent="xpotKcDEAo2xzTlbNBnj-40">
                    <mxGeometry y="150" width="180" height="30" as="geometry"/>
                </mxCell>
                <mxCell id="xpotKcDEAo2xzTlbNBnj-54" value="" style="shape=partialRectangle;connectable=0;fillColor=none;top=0;left=0;bottom=0;right=0;editable=1;overflow=hidden;html=1;whiteSpace=wrap;strokeColor=default;align=center;verticalAlign=middle;fontFamily=Helvetica;fontSize=12;fontColor=default;" vertex="1" parent="xpotKcDEAo2xzTlbNBnj-53">
                    <mxGeometry width="60" height="30" as="geometry">
                        <mxRectangle width="60" height="30" as="alternateBounds"/>
                    </mxGeometry>
                </mxCell>
                <mxCell id="xpotKcDEAo2xzTlbNBnj-55" value="기본주소" style="shape=partialRectangle;connectable=0;fillColor=none;top=0;left=0;bottom=0;right=0;align=left;spacingLeft=6;overflow=hidden;html=1;whiteSpace=wrap;strokeColor=default;verticalAlign=middle;fontFamily=Helvetica;fontSize=12;fontColor=default;" vertex="1" parent="xpotKcDEAo2xzTlbNBnj-53">
                    <mxGeometry x="60" width="120" height="30" as="geometry">
                        <mxRectangle width="120" height="30" as="alternateBounds"/>
                    </mxGeometry>
                </mxCell>
                <mxCell id="xpotKcDEAo2xzTlbNBnj-50" value="" style="shape=tableRow;horizontal=0;startSize=0;swimlaneHead=0;swimlaneBody=0;fillColor=none;collapsible=0;dropTarget=0;points=[[0,0.5],[1,0.5]];portConstraint=eastwest;top=0;left=0;right=0;bottom=0;html=1;strokeColor=default;align=center;verticalAlign=middle;fontFamily=Helvetica;fontSize=12;fontColor=default;" vertex="1" parent="xpotKcDEAo2xzTlbNBnj-40">
                    <mxGeometry y="180" width="180" height="30" as="geometry"/>
                </mxCell>
                <mxCell id="xpotKcDEAo2xzTlbNBnj-51" value="" style="shape=partialRectangle;connectable=0;fillColor=none;top=0;left=0;bottom=0;right=0;editable=1;overflow=hidden;html=1;whiteSpace=wrap;strokeColor=default;align=center;verticalAlign=middle;fontFamily=Helvetica;fontSize=12;fontColor=default;" vertex="1" parent="xpotKcDEAo2xzTlbNBnj-50">
                    <mxGeometry width="60" height="30" as="geometry">
                        <mxRectangle width="60" height="30" as="alternateBounds"/>
                    </mxGeometry>
                </mxCell>
                <mxCell id="xpotKcDEAo2xzTlbNBnj-52" value="상세주소" style="shape=partialRectangle;connectable=0;fillColor=none;top=0;left=0;bottom=0;right=0;align=left;spacingLeft=6;overflow=hidden;html=1;whiteSpace=wrap;strokeColor=default;verticalAlign=middle;fontFamily=Helvetica;fontSize=12;fontColor=default;" vertex="1" parent="xpotKcDEAo2xzTlbNBnj-50">
                    <mxGeometry x="60" width="120" height="30" as="geometry">
                        <mxRectangle width="120" height="30" as="alternateBounds"/>
                    </mxGeometry>
                </mxCell>
                <mxCell id="cPqX6gx7ikWUh4t88fsq-1" value="" style="shape=tableRow;horizontal=0;startSize=0;swimlaneHead=0;swimlaneBody=0;fillColor=none;collapsible=0;dropTarget=0;points=[[0,0.5],[1,0.5]];portConstraint=eastwest;top=0;left=0;right=0;bottom=0;html=1;strokeColor=default;align=center;verticalAlign=middle;fontFamily=Helvetica;fontSize=12;fontColor=default;" vertex="1" parent="xpotKcDEAo2xzTlbNBnj-40">
                    <mxGeometry y="210" width="180" height="30" as="geometry"/>
                </mxCell>
                <mxCell id="cPqX6gx7ikWUh4t88fsq-2" value="" style="shape=partialRectangle;connectable=0;fillColor=none;top=0;left=0;bottom=0;right=0;editable=1;overflow=hidden;html=1;whiteSpace=wrap;strokeColor=default;align=center;verticalAlign=middle;fontFamily=Helvetica;fontSize=12;fontColor=default;" vertex="1" parent="cPqX6gx7ikWUh4t88fsq-1">
                    <mxGeometry width="60" height="30" as="geometry">
                        <mxRectangle width="60" height="30" as="alternateBounds"/>
                    </mxGeometry>
                </mxCell>
                <mxCell id="cPqX6gx7ikWUh4t88fsq-3" value="주문일자" style="shape=partialRectangle;connectable=0;fillColor=none;top=0;left=0;bottom=0;right=0;align=left;spacingLeft=6;overflow=hidden;html=1;whiteSpace=wrap;strokeColor=default;verticalAlign=middle;fontFamily=Helvetica;fontSize=12;fontColor=default;" vertex="1" parent="cPqX6gx7ikWUh4t88fsq-1">
                    <mxGeometry x="60" width="120" height="30" as="geometry">
                        <mxRectangle width="120" height="30" as="alternateBounds"/>
                    </mxGeometry>
                </mxCell>
                <mxCell id="cKrLz4au01-gNVgl1EAu-1" value="상품색상" style="shape=table;startSize=30;container=1;collapsible=1;childLayout=tableLayout;fixedRows=1;rowLines=0;fontStyle=1;align=center;resizeLast=1;html=1;strokeColor=default;verticalAlign=middle;fontFamily=Helvetica;fontSize=12;fontColor=default;fillColor=default;" vertex="1" parent="1">
                    <mxGeometry x="620" y="-80" width="180" height="120" as="geometry"/>
                </mxCell>
                <mxCell id="cKrLz4au01-gNVgl1EAu-2" value="" style="shape=tableRow;horizontal=0;startSize=0;swimlaneHead=0;swimlaneBody=0;fillColor=none;collapsible=0;dropTarget=0;points=[[0,0.5],[1,0.5]];portConstraint=eastwest;top=0;left=0;right=0;bottom=1;strokeColor=default;align=center;verticalAlign=middle;fontFamily=Helvetica;fontSize=12;fontColor=default;" vertex="1" parent="cKrLz4au01-gNVgl1EAu-1">
                    <mxGeometry y="30" width="180" height="30" as="geometry"/>
                </mxCell>
                <mxCell id="cKrLz4au01-gNVgl1EAu-3" value="PK" style="shape=partialRectangle;connectable=0;fillColor=none;top=0;left=0;bottom=0;right=0;fontStyle=1;overflow=hidden;whiteSpace=wrap;html=1;strokeColor=default;align=center;verticalAlign=middle;fontFamily=Helvetica;fontSize=12;fontColor=default;" vertex="1" parent="cKrLz4au01-gNVgl1EAu-2">
                    <mxGeometry width="30" height="30" as="geometry">
                        <mxRectangle width="30" height="30" as="alternateBounds"/>
                    </mxGeometry>
                </mxCell>
                <mxCell id="cKrLz4au01-gNVgl1EAu-4" value="NO" style="shape=partialRectangle;connectable=0;fillColor=none;top=0;left=0;bottom=0;right=0;align=left;spacingLeft=6;fontStyle=5;overflow=hidden;whiteSpace=wrap;html=1;strokeColor=default;verticalAlign=middle;fontFamily=Helvetica;fontSize=12;fontColor=default;" vertex="1" parent="cKrLz4au01-gNVgl1EAu-2">
                    <mxGeometry x="30" width="150" height="30" as="geometry">
                        <mxRectangle width="150" height="30" as="alternateBounds"/>
                    </mxGeometry>
                </mxCell>
                <mxCell id="cKrLz4au01-gNVgl1EAu-17" value="" style="shape=tableRow;horizontal=0;startSize=0;swimlaneHead=0;swimlaneBody=0;fillColor=none;collapsible=0;dropTarget=0;points=[[0,0.5],[1,0.5]];portConstraint=eastwest;top=0;left=0;right=0;bottom=1;strokeColor=default;align=center;verticalAlign=middle;fontFamily=Helvetica;fontSize=12;fontColor=default;" vertex="1" parent="cKrLz4au01-gNVgl1EAu-1">
                    <mxGeometry y="60" width="180" height="30" as="geometry"/>
                </mxCell>
                <mxCell id="cKrLz4au01-gNVgl1EAu-18" value="FK" style="shape=partialRectangle;connectable=0;fillColor=none;top=0;left=0;bottom=0;right=0;fontStyle=1;overflow=hidden;whiteSpace=wrap;html=1;strokeColor=default;align=center;verticalAlign=middle;fontFamily=Helvetica;fontSize=12;fontColor=default;" vertex="1" parent="cKrLz4au01-gNVgl1EAu-17">
                    <mxGeometry width="30" height="30" as="geometry">
                        <mxRectangle width="30" height="30" as="alternateBounds"/>
                    </mxGeometry>
                </mxCell>
                <mxCell id="cKrLz4au01-gNVgl1EAu-19" value="상품번호" style="shape=partialRectangle;connectable=0;fillColor=none;top=0;left=0;bottom=0;right=0;align=left;spacingLeft=6;fontStyle=5;overflow=hidden;whiteSpace=wrap;html=1;strokeColor=default;verticalAlign=middle;fontFamily=Helvetica;fontSize=12;fontColor=default;" vertex="1" parent="cKrLz4au01-gNVgl1EAu-17">
                    <mxGeometry x="30" width="150" height="30" as="geometry">
                        <mxRectangle width="150" height="30" as="alternateBounds"/>
                    </mxGeometry>
                </mxCell>
                <mxCell id="cKrLz4au01-gNVgl1EAu-8" value="" style="shape=tableRow;horizontal=0;startSize=0;swimlaneHead=0;swimlaneBody=0;fillColor=none;collapsible=0;dropTarget=0;points=[[0,0.5],[1,0.5]];portConstraint=eastwest;top=0;left=0;right=0;bottom=0;strokeColor=default;align=center;verticalAlign=middle;fontFamily=Helvetica;fontSize=12;fontColor=default;" vertex="1" parent="cKrLz4au01-gNVgl1EAu-1">
                    <mxGeometry y="90" width="180" height="30" as="geometry"/>
                </mxCell>
                <mxCell id="cKrLz4au01-gNVgl1EAu-9" value="" style="shape=partialRectangle;connectable=0;fillColor=none;top=0;left=0;bottom=0;right=0;editable=1;overflow=hidden;whiteSpace=wrap;html=1;strokeColor=default;align=center;verticalAlign=middle;fontFamily=Helvetica;fontSize=12;fontColor=default;" vertex="1" parent="cKrLz4au01-gNVgl1EAu-8">
                    <mxGeometry width="30" height="30" as="geometry">
                        <mxRectangle width="30" height="30" as="alternateBounds"/>
                    </mxGeometry>
                </mxCell>
                <mxCell id="cKrLz4au01-gNVgl1EAu-10" value="색상" style="shape=partialRectangle;connectable=0;fillColor=none;top=0;left=0;bottom=0;right=0;align=left;spacingLeft=6;overflow=hidden;whiteSpace=wrap;html=1;strokeColor=default;verticalAlign=middle;fontFamily=Helvetica;fontSize=12;fontColor=default;" vertex="1" parent="cKrLz4au01-gNVgl1EAu-8">
                    <mxGeometry x="30" width="150" height="30" as="geometry">
                        <mxRectangle width="150" height="30" as="alternateBounds"/>
                    </mxGeometry>
                </mxCell>
            </root>
        </mxGraphModel>
    </diagram>
    <diagram id="Gu9HkLdq8Xc1gVgRyxl9" name="학사관리 ERD">
        <mxGraphModel dx="1925" dy="787" grid="1" gridSize="10" guides="1" tooltips="1" connect="1" arrows="1" fold="1" page="1" pageScale="1" pageWidth="850" pageHeight="1100" math="0" shadow="0">
            <root>
                <mxCell id="0"/>
                <mxCell id="1" parent="0"/>
                <mxCell id="7JP3Tpvws_wbu3NbM8kd-2" style="edgeStyle=none;html=1;entryX=0;entryY=0.5;entryDx=0;entryDy=0;fontFamily=Helvetica;fontSize=12;fontColor=default;endArrow=none;endFill=0;startArrow=ERmany;startFill=0;" edge="1" parent="1" source="2_s0XXmd1n_kmKxBmlf3-1" target="7JP3Tpvws_wbu3NbM8kd-1">
                    <mxGeometry relative="1" as="geometry"/>
                </mxCell>
                <mxCell id="7JP3Tpvws_wbu3NbM8kd-18" style="edgeStyle=none;html=1;entryX=0.5;entryY=1;entryDx=0;entryDy=0;fontFamily=Helvetica;fontSize=12;fontColor=default;exitX=0;exitY=0;exitDx=0;exitDy=0;endArrow=none;endFill=0;" edge="1" parent="1" source="2_s0XXmd1n_kmKxBmlf3-1" target="pyoixG63xmRaE33dkl7y-1">
                    <mxGeometry relative="1" as="geometry"/>
                </mxCell>
                <mxCell id="7JP3Tpvws_wbu3NbM8kd-19" style="edgeStyle=none;html=1;entryX=1;entryY=1;entryDx=0;entryDy=0;fontFamily=Helvetica;fontSize=12;fontColor=default;exitX=0;exitY=0;exitDx=0;exitDy=0;endArrow=none;endFill=0;" edge="1" parent="1" source="2_s0XXmd1n_kmKxBmlf3-1" target="pyoixG63xmRaE33dkl7y-2">
                    <mxGeometry relative="1" as="geometry"/>
                </mxCell>
                <mxCell id="7JP3Tpvws_wbu3NbM8kd-21" style="edgeStyle=none;html=1;entryX=1;entryY=0.5;entryDx=0;entryDy=0;fontFamily=Helvetica;fontSize=12;fontColor=default;endArrow=none;endFill=0;" edge="1" parent="1" target="pyoixG63xmRaE33dkl7y-4">
                    <mxGeometry relative="1" as="geometry">
                        <mxPoint x="150" y="250" as="sourcePoint"/>
                    </mxGeometry>
                </mxCell>
                <mxCell id="2_s0XXmd1n_kmKxBmlf3-1" value="학생" style="whiteSpace=wrap;html=1;align=center;strokeColor=default;verticalAlign=middle;fontFamily=Helvetica;fontSize=12;fontColor=default;fillColor=default;" vertex="1" parent="1">
                    <mxGeometry x="150" y="250" width="100" height="40" as="geometry"/>
                </mxCell>
                <mxCell id="pyoixG63xmRaE33dkl7y-1" value="학번" style="ellipse;whiteSpace=wrap;html=1;align=center;fontStyle=4;strokeColor=default;verticalAlign=middle;fontFamily=Helvetica;fontSize=12;fontColor=default;fillColor=default;" vertex="1" parent="1">
                    <mxGeometry x="120" y="100" width="100" height="40" as="geometry"/>
                </mxCell>
                <mxCell id="pyoixG63xmRaE33dkl7y-2" value="이름" style="ellipse;whiteSpace=wrap;html=1;align=center;strokeColor=default;verticalAlign=middle;fontFamily=Helvetica;fontSize=12;fontColor=default;fillColor=default;" vertex="1" parent="1">
                    <mxGeometry x="-10" y="100" width="100" height="40" as="geometry"/>
                </mxCell>
                <mxCell id="pyoixG63xmRaE33dkl7y-3" value="키" style="ellipse;whiteSpace=wrap;html=1;align=center;strokeColor=default;verticalAlign=middle;fontFamily=Helvetica;fontSize=12;fontColor=default;fillColor=default;" vertex="1" parent="1">
                    <mxGeometry x="-30" y="170" width="100" height="40" as="geometry"/>
                </mxCell>
                <mxCell id="pyoixG63xmRaE33dkl7y-4" value="학과코드" style="ellipse;whiteSpace=wrap;html=1;align=center;strokeColor=default;verticalAlign=middle;fontFamily=Helvetica;fontSize=12;fontColor=default;fillColor=default;" vertex="1" parent="1">
                    <mxGeometry x="-40" y="235" width="100" height="40" as="geometry"/>
                </mxCell>
                <mxCell id="7JP3Tpvws_wbu3NbM8kd-25" style="edgeStyle=none;html=1;entryX=0;entryY=0.5;entryDx=0;entryDy=0;fontFamily=Helvetica;fontSize=12;fontColor=default;exitX=1;exitY=0.5;exitDx=0;exitDy=0;endArrow=none;endFill=0;" edge="1" parent="1" source="pyoixG63xmRaE33dkl7y-5" target="pyoixG63xmRaE33dkl7y-7">
                    <mxGeometry relative="1" as="geometry"/>
                </mxCell>
                <mxCell id="7JP3Tpvws_wbu3NbM8kd-26" style="edgeStyle=none;html=1;entryX=0;entryY=0.5;entryDx=0;entryDy=0;fontFamily=Helvetica;fontSize=12;fontColor=default;exitX=1;exitY=0.5;exitDx=0;exitDy=0;endArrow=none;endFill=0;" edge="1" parent="1" source="pyoixG63xmRaE33dkl7y-5" target="pyoixG63xmRaE33dkl7y-6">
                    <mxGeometry relative="1" as="geometry"/>
                </mxCell>
                <mxCell id="pyoixG63xmRaE33dkl7y-5" value="학과" style="whiteSpace=wrap;html=1;align=center;strokeColor=default;verticalAlign=middle;fontFamily=Helvetica;fontSize=12;fontColor=default;fillColor=default;" vertex="1" parent="1">
                    <mxGeometry x="610" y="250" width="100" height="40" as="geometry"/>
                </mxCell>
                <mxCell id="pyoixG63xmRaE33dkl7y-6" value="학과명" style="ellipse;whiteSpace=wrap;html=1;align=center;strokeColor=default;verticalAlign=middle;fontFamily=Helvetica;fontSize=12;fontColor=default;fillColor=default;" vertex="1" parent="1">
                    <mxGeometry x="760" y="280" width="100" height="40" as="geometry"/>
                </mxCell>
                <mxCell id="pyoixG63xmRaE33dkl7y-7" value="학과코드" style="ellipse;whiteSpace=wrap;html=1;align=center;fontStyle=4;strokeColor=default;verticalAlign=middle;fontFamily=Helvetica;fontSize=12;fontColor=default;fillColor=default;" vertex="1" parent="1">
                    <mxGeometry x="760" y="210" width="100" height="40" as="geometry"/>
                </mxCell>
                <mxCell id="7JP3Tpvws_wbu3NbM8kd-22" style="edgeStyle=none;html=1;entryX=0;entryY=0.5;entryDx=0;entryDy=0;fontFamily=Helvetica;fontSize=12;fontColor=default;exitX=1;exitY=0.5;exitDx=0;exitDy=0;endArrow=none;endFill=0;" edge="1" parent="1" source="pyoixG63xmRaE33dkl7y-8" target="pyoixG63xmRaE33dkl7y-9">
                    <mxGeometry relative="1" as="geometry"/>
                </mxCell>
                <mxCell id="7JP3Tpvws_wbu3NbM8kd-23" style="edgeStyle=none;html=1;entryX=0;entryY=0.5;entryDx=0;entryDy=0;fontFamily=Helvetica;fontSize=12;fontColor=default;exitX=1;exitY=0.5;exitDx=0;exitDy=0;endArrow=none;endFill=0;" edge="1" parent="1" source="pyoixG63xmRaE33dkl7y-8" target="pyoixG63xmRaE33dkl7y-10">
                    <mxGeometry relative="1" as="geometry"/>
                </mxCell>
                <mxCell id="pyoixG63xmRaE33dkl7y-8" value="교수" style="whiteSpace=wrap;html=1;align=center;strokeColor=default;verticalAlign=middle;fontFamily=Helvetica;fontSize=12;fontColor=default;fillColor=default;" vertex="1" parent="1">
                    <mxGeometry x="610" y="510" width="100" height="40" as="geometry"/>
                </mxCell>
                <mxCell id="pyoixG63xmRaE33dkl7y-9" value="교수코드" style="ellipse;whiteSpace=wrap;html=1;align=center;fontStyle=4;strokeColor=default;verticalAlign=middle;fontFamily=Helvetica;fontSize=12;fontColor=default;fillColor=default;" vertex="1" parent="1">
                    <mxGeometry x="750" y="490" width="100" height="40" as="geometry"/>
                </mxCell>
                <mxCell id="pyoixG63xmRaE33dkl7y-10" value="교수명" style="ellipse;whiteSpace=wrap;html=1;align=center;strokeColor=default;verticalAlign=middle;fontFamily=Helvetica;fontSize=12;fontColor=default;fillColor=default;" vertex="1" parent="1">
                    <mxGeometry x="750" y="550" width="100" height="40" as="geometry"/>
                </mxCell>
                <mxCell id="7JP3Tpvws_wbu3NbM8kd-31" style="edgeStyle=none;html=1;exitX=0;exitY=1;exitDx=0;exitDy=0;entryX=1;entryY=0;entryDx=0;entryDy=0;fontFamily=Helvetica;fontSize=12;fontColor=default;endArrow=none;endFill=0;" edge="1" parent="1" source="pyoixG63xmRaE33dkl7y-13" target="pyoixG63xmRaE33dkl7y-14">
                    <mxGeometry relative="1" as="geometry"/>
                </mxCell>
                <mxCell id="7JP3Tpvws_wbu3NbM8kd-32" style="edgeStyle=none;html=1;fontFamily=Helvetica;fontSize=12;fontColor=default;exitX=0;exitY=1;exitDx=0;exitDy=0;endArrow=none;endFill=0;" edge="1" parent="1" source="pyoixG63xmRaE33dkl7y-13" target="pyoixG63xmRaE33dkl7y-18">
                    <mxGeometry relative="1" as="geometry"/>
                </mxCell>
                <mxCell id="pyoixG63xmRaE33dkl7y-13" value="과목" style="whiteSpace=wrap;html=1;align=center;strokeColor=default;verticalAlign=middle;fontFamily=Helvetica;fontSize=12;fontColor=default;fillColor=default;" vertex="1" parent="1">
                    <mxGeometry x="150" y="510" width="100" height="40" as="geometry"/>
                </mxCell>
                <mxCell id="pyoixG63xmRaE33dkl7y-14" value="과목명" style="ellipse;whiteSpace=wrap;html=1;align=center;strokeColor=default;verticalAlign=middle;fontFamily=Helvetica;fontSize=12;fontColor=default;fillColor=default;" vertex="1" parent="1">
                    <mxGeometry x="-60" y="610" width="100" height="40" as="geometry"/>
                </mxCell>
                <mxCell id="pyoixG63xmRaE33dkl7y-16" value="시작일" style="ellipse;whiteSpace=wrap;html=1;align=center;strokeColor=default;verticalAlign=middle;fontFamily=Helvetica;fontSize=12;fontColor=default;fillColor=default;" vertex="1" parent="1">
                    <mxGeometry x="40" y="670" width="100" height="40" as="geometry"/>
                </mxCell>
                <mxCell id="pyoixG63xmRaE33dkl7y-17" value="종료일" style="ellipse;whiteSpace=wrap;html=1;align=center;strokeColor=default;verticalAlign=middle;fontFamily=Helvetica;fontSize=12;fontColor=default;fillColor=default;" vertex="1" parent="1">
                    <mxGeometry x="150" y="680" width="100" height="40" as="geometry"/>
                </mxCell>
                <mxCell id="pyoixG63xmRaE33dkl7y-18" value="과목코드" style="ellipse;whiteSpace=wrap;html=1;align=center;fontStyle=4;strokeColor=default;verticalAlign=middle;fontFamily=Helvetica;fontSize=12;fontColor=default;fillColor=default;" vertex="1" parent="1">
                    <mxGeometry x="-90" y="530" width="100" height="40" as="geometry"/>
                </mxCell>
                <mxCell id="7JP3Tpvws_wbu3NbM8kd-16" style="edgeStyle=none;html=1;entryX=0.5;entryY=1;entryDx=0;entryDy=0;fontFamily=Helvetica;fontSize=12;fontColor=default;endArrow=ERmany;endFill=0;" edge="1" parent="1" source="pyoixG63xmRaE33dkl7y-19" target="2_s0XXmd1n_kmKxBmlf3-1">
                    <mxGeometry relative="1" as="geometry"/>
                </mxCell>
                <mxCell id="7JP3Tpvws_wbu3NbM8kd-17" style="edgeStyle=none;html=1;fontFamily=Helvetica;fontSize=12;fontColor=default;endArrow=ERmany;endFill=0;" edge="1" parent="1" source="pyoixG63xmRaE33dkl7y-19" target="pyoixG63xmRaE33dkl7y-13">
                    <mxGeometry relative="1" as="geometry"/>
                </mxCell>
                <mxCell id="pyoixG63xmRaE33dkl7y-19" value="수강" style="shape=rhombus;perimeter=rhombusPerimeter;whiteSpace=wrap;html=1;align=center;strokeColor=default;verticalAlign=middle;fontFamily=Helvetica;fontSize=12;fontColor=default;fillColor=default;" vertex="1" parent="1">
                    <mxGeometry x="140" y="370" width="120" height="60" as="geometry"/>
                </mxCell>
                <mxCell id="7JP3Tpvws_wbu3NbM8kd-3" style="edgeStyle=none;html=1;entryX=0;entryY=0.5;entryDx=0;entryDy=0;fontFamily=Helvetica;fontSize=12;fontColor=default;endArrow=none;endFill=0;" edge="1" parent="1" source="7JP3Tpvws_wbu3NbM8kd-1" target="pyoixG63xmRaE33dkl7y-5">
                    <mxGeometry relative="1" as="geometry"/>
                </mxCell>
                <mxCell id="7JP3Tpvws_wbu3NbM8kd-1" value="소속" style="shape=rhombus;perimeter=rhombusPerimeter;whiteSpace=wrap;html=1;align=center;strokeColor=default;verticalAlign=middle;fontFamily=Helvetica;fontSize=12;fontColor=default;fillColor=default;" vertex="1" parent="1">
                    <mxGeometry x="380" y="240" width="120" height="60" as="geometry"/>
                </mxCell>
                <mxCell id="7JP3Tpvws_wbu3NbM8kd-4" value="N" style="text;html=1;align=center;verticalAlign=middle;whiteSpace=wrap;rounded=0;fontFamily=Helvetica;fontSize=12;fontColor=default;" vertex="1" parent="1">
                    <mxGeometry x="250" y="240" width="20" height="30" as="geometry"/>
                </mxCell>
                <mxCell id="7JP3Tpvws_wbu3NbM8kd-5" value="1" style="text;html=1;align=center;verticalAlign=middle;whiteSpace=wrap;rounded=0;fontFamily=Helvetica;fontSize=12;fontColor=default;" vertex="1" parent="1">
                    <mxGeometry x="590" y="240" width="20" height="30" as="geometry"/>
                </mxCell>
                <mxCell id="7JP3Tpvws_wbu3NbM8kd-7" style="edgeStyle=none;html=1;entryX=0.5;entryY=1;entryDx=0;entryDy=0;fontFamily=Helvetica;fontSize=12;fontColor=default;endArrow=none;endFill=0;" edge="1" parent="1" source="7JP3Tpvws_wbu3NbM8kd-6" target="pyoixG63xmRaE33dkl7y-5">
                    <mxGeometry relative="1" as="geometry"/>
                </mxCell>
                <mxCell id="7JP3Tpvws_wbu3NbM8kd-8" style="edgeStyle=none;html=1;fontFamily=Helvetica;fontSize=12;fontColor=default;endArrow=ERmany;endFill=0;" edge="1" parent="1" source="7JP3Tpvws_wbu3NbM8kd-6" target="pyoixG63xmRaE33dkl7y-8">
                    <mxGeometry relative="1" as="geometry"/>
                </mxCell>
                <mxCell id="7JP3Tpvws_wbu3NbM8kd-6" value="소속" style="shape=rhombus;perimeter=rhombusPerimeter;whiteSpace=wrap;html=1;align=center;strokeColor=default;verticalAlign=middle;fontFamily=Helvetica;fontSize=12;fontColor=default;fillColor=default;" vertex="1" parent="1">
                    <mxGeometry x="600" y="370" width="120" height="60" as="geometry"/>
                </mxCell>
                <mxCell id="7JP3Tpvws_wbu3NbM8kd-9" value="1" style="text;html=1;align=center;verticalAlign=middle;whiteSpace=wrap;rounded=0;fontFamily=Helvetica;fontSize=12;fontColor=default;" vertex="1" parent="1">
                    <mxGeometry x="640" y="290" width="20" height="30" as="geometry"/>
                </mxCell>
                <mxCell id="7JP3Tpvws_wbu3NbM8kd-10" value="N" style="text;html=1;align=center;verticalAlign=middle;whiteSpace=wrap;rounded=0;fontFamily=Helvetica;fontSize=12;fontColor=default;" vertex="1" parent="1">
                    <mxGeometry x="640" y="480" width="20" height="30" as="geometry"/>
                </mxCell>
                <mxCell id="7JP3Tpvws_wbu3NbM8kd-12" style="edgeStyle=none;html=1;entryX=1;entryY=0.5;entryDx=0;entryDy=0;fontFamily=Helvetica;fontSize=12;fontColor=default;startArrow=none;startFill=0;endArrow=ERmany;endFill=0;" edge="1" parent="1" source="7JP3Tpvws_wbu3NbM8kd-11" target="pyoixG63xmRaE33dkl7y-13">
                    <mxGeometry relative="1" as="geometry"/>
                </mxCell>
                <mxCell id="7JP3Tpvws_wbu3NbM8kd-13" style="edgeStyle=none;html=1;fontFamily=Helvetica;fontSize=12;fontColor=default;endArrow=none;endFill=0;" edge="1" parent="1" source="7JP3Tpvws_wbu3NbM8kd-11">
                    <mxGeometry relative="1" as="geometry">
                        <mxPoint x="610" y="530" as="targetPoint"/>
                    </mxGeometry>
                </mxCell>
                <mxCell id="7JP3Tpvws_wbu3NbM8kd-11" value="강의" style="shape=rhombus;perimeter=rhombusPerimeter;whiteSpace=wrap;html=1;align=center;strokeColor=default;verticalAlign=middle;fontFamily=Helvetica;fontSize=12;fontColor=default;fillColor=default;" vertex="1" parent="1">
                    <mxGeometry x="380" y="500" width="120" height="60" as="geometry"/>
                </mxCell>
                <mxCell id="7JP3Tpvws_wbu3NbM8kd-14" value="N" style="text;html=1;align=center;verticalAlign=middle;whiteSpace=wrap;rounded=0;fontFamily=Helvetica;fontSize=12;fontColor=default;" vertex="1" parent="1">
                    <mxGeometry x="250" y="500" width="20" height="30" as="geometry"/>
                </mxCell>
                <mxCell id="7JP3Tpvws_wbu3NbM8kd-15" value="1" style="text;html=1;align=center;verticalAlign=middle;whiteSpace=wrap;rounded=0;fontFamily=Helvetica;fontSize=12;fontColor=default;" vertex="1" parent="1">
                    <mxGeometry x="590" y="500" width="20" height="30" as="geometry"/>
                </mxCell>
                <mxCell id="7JP3Tpvws_wbu3NbM8kd-20" style="edgeStyle=none;html=1;entryX=1.01;entryY=0.675;entryDx=0;entryDy=0;entryPerimeter=0;fontFamily=Helvetica;fontSize=12;fontColor=default;exitX=0;exitY=0;exitDx=0;exitDy=0;endArrow=none;endFill=0;" edge="1" parent="1" source="2_s0XXmd1n_kmKxBmlf3-1" target="pyoixG63xmRaE33dkl7y-3">
                    <mxGeometry relative="1" as="geometry"/>
                </mxCell>
                <mxCell id="7JP3Tpvws_wbu3NbM8kd-35" value="" style="edgeStyle=none;html=1;fontFamily=Helvetica;fontSize=12;fontColor=default;entryX=0;entryY=0.5;entryDx=0;entryDy=0;endArrow=none;endFill=0;" edge="1" parent="1" target="pyoixG63xmRaE33dkl7y-19">
                    <mxGeometry relative="1" as="geometry">
                        <mxPoint x="53.30927930243024" y="379.9944490697917" as="sourcePoint"/>
                    </mxGeometry>
                </mxCell>
                <mxCell id="7JP3Tpvws_wbu3NbM8kd-36" style="edgeStyle=none;html=1;entryX=0;entryY=0.5;entryDx=0;entryDy=0;fontFamily=Helvetica;fontSize=12;fontColor=default;endArrow=none;endFill=0;" edge="1" parent="1" source="7JP3Tpvws_wbu3NbM8kd-34" target="pyoixG63xmRaE33dkl7y-19">
                    <mxGeometry relative="1" as="geometry"/>
                </mxCell>
                <mxCell id="7JP3Tpvws_wbu3NbM8kd-34" value="수강일자" style="ellipse;whiteSpace=wrap;html=1;align=center;strokeColor=default;verticalAlign=middle;fontFamily=Helvetica;fontSize=12;fontColor=default;fillColor=default;" vertex="1" parent="1">
                    <mxGeometry x="-40" y="410" width="100" height="40" as="geometry"/>
                </mxCell>
                <mxCell id="7JP3Tpvws_wbu3NbM8kd-50" value="교수" style="shape=table;startSize=30;container=1;collapsible=1;childLayout=tableLayout;fixedRows=1;rowLines=0;fontStyle=1;align=center;resizeLast=1;html=1;strokeColor=default;verticalAlign=middle;fontFamily=Helvetica;fontSize=12;fontColor=default;fillColor=default;" vertex="1" parent="1">
                    <mxGeometry x="880" y="1106" width="180" height="120" as="geometry"/>
                </mxCell>
                <mxCell id="7JP3Tpvws_wbu3NbM8kd-51" value="" style="shape=tableRow;horizontal=0;startSize=0;swimlaneHead=0;swimlaneBody=0;fillColor=none;collapsible=0;dropTarget=0;points=[[0,0.5],[1,0.5]];portConstraint=eastwest;top=0;left=0;right=0;bottom=1;strokeColor=default;align=center;verticalAlign=middle;fontFamily=Helvetica;fontSize=12;fontColor=default;" vertex="1" parent="7JP3Tpvws_wbu3NbM8kd-50">
                    <mxGeometry y="30" width="180" height="30" as="geometry"/>
                </mxCell>
                <mxCell id="7JP3Tpvws_wbu3NbM8kd-52" value="PK" style="shape=partialRectangle;connectable=0;fillColor=none;top=0;left=0;bottom=0;right=0;fontStyle=1;overflow=hidden;whiteSpace=wrap;html=1;strokeColor=default;align=center;verticalAlign=middle;fontFamily=Helvetica;fontSize=12;fontColor=default;" vertex="1" parent="7JP3Tpvws_wbu3NbM8kd-51">
                    <mxGeometry width="30" height="30" as="geometry">
                        <mxRectangle width="30" height="30" as="alternateBounds"/>
                    </mxGeometry>
                </mxCell>
                <mxCell id="7JP3Tpvws_wbu3NbM8kd-53" value="교수코드" style="shape=partialRectangle;connectable=0;fillColor=none;top=0;left=0;bottom=0;right=0;align=left;spacingLeft=6;fontStyle=5;overflow=hidden;whiteSpace=wrap;html=1;strokeColor=default;verticalAlign=middle;fontFamily=Helvetica;fontSize=12;fontColor=default;" vertex="1" parent="7JP3Tpvws_wbu3NbM8kd-51">
                    <mxGeometry x="30" width="150" height="30" as="geometry">
                        <mxRectangle width="150" height="30" as="alternateBounds"/>
                    </mxGeometry>
                </mxCell>
                <mxCell id="7JP3Tpvws_wbu3NbM8kd-63" value="" style="shape=tableRow;horizontal=0;startSize=0;swimlaneHead=0;swimlaneBody=0;fillColor=none;collapsible=0;dropTarget=0;points=[[0,0.5],[1,0.5]];portConstraint=eastwest;top=0;left=0;right=0;bottom=1;strokeColor=default;align=center;verticalAlign=middle;fontFamily=Helvetica;fontSize=12;fontColor=default;" vertex="1" parent="7JP3Tpvws_wbu3NbM8kd-50">
                    <mxGeometry y="60" width="180" height="30" as="geometry"/>
                </mxCell>
                <mxCell id="7JP3Tpvws_wbu3NbM8kd-64" value="&amp;nbsp;FK" style="shape=partialRectangle;connectable=0;fillColor=none;top=0;left=0;bottom=0;right=0;fontStyle=1;overflow=hidden;whiteSpace=wrap;html=1;strokeColor=default;align=center;verticalAlign=middle;fontFamily=Helvetica;fontSize=12;fontColor=default;" vertex="1" parent="7JP3Tpvws_wbu3NbM8kd-63">
                    <mxGeometry width="30" height="30" as="geometry">
                        <mxRectangle width="30" height="30" as="alternateBounds"/>
                    </mxGeometry>
                </mxCell>
                <mxCell id="7JP3Tpvws_wbu3NbM8kd-65" value="학과코드" style="shape=partialRectangle;connectable=0;fillColor=none;top=0;left=0;bottom=0;right=0;align=left;spacingLeft=6;fontStyle=5;overflow=hidden;whiteSpace=wrap;html=1;strokeColor=default;verticalAlign=middle;fontFamily=Helvetica;fontSize=12;fontColor=default;" vertex="1" parent="7JP3Tpvws_wbu3NbM8kd-63">
                    <mxGeometry x="30" width="150" height="30" as="geometry">
                        <mxRectangle width="150" height="30" as="alternateBounds"/>
                    </mxGeometry>
                </mxCell>
                <mxCell id="7JP3Tpvws_wbu3NbM8kd-54" value="" style="shape=tableRow;horizontal=0;startSize=0;swimlaneHead=0;swimlaneBody=0;fillColor=none;collapsible=0;dropTarget=0;points=[[0,0.5],[1,0.5]];portConstraint=eastwest;top=0;left=0;right=0;bottom=0;strokeColor=default;align=center;verticalAlign=middle;fontFamily=Helvetica;fontSize=12;fontColor=default;" vertex="1" parent="7JP3Tpvws_wbu3NbM8kd-50">
                    <mxGeometry y="90" width="180" height="30" as="geometry"/>
                </mxCell>
                <mxCell id="7JP3Tpvws_wbu3NbM8kd-55" value="" style="shape=partialRectangle;connectable=0;fillColor=none;top=0;left=0;bottom=0;right=0;editable=1;overflow=hidden;whiteSpace=wrap;html=1;strokeColor=default;align=center;verticalAlign=middle;fontFamily=Helvetica;fontSize=12;fontColor=default;" vertex="1" parent="7JP3Tpvws_wbu3NbM8kd-54">
                    <mxGeometry width="30" height="30" as="geometry">
                        <mxRectangle width="30" height="30" as="alternateBounds"/>
                    </mxGeometry>
                </mxCell>
                <mxCell id="7JP3Tpvws_wbu3NbM8kd-56" value="교수명" style="shape=partialRectangle;connectable=0;fillColor=none;top=0;left=0;bottom=0;right=0;align=left;spacingLeft=6;overflow=hidden;whiteSpace=wrap;html=1;strokeColor=default;verticalAlign=middle;fontFamily=Helvetica;fontSize=12;fontColor=default;" vertex="1" parent="7JP3Tpvws_wbu3NbM8kd-54">
                    <mxGeometry x="30" width="150" height="30" as="geometry">
                        <mxRectangle width="150" height="30" as="alternateBounds"/>
                    </mxGeometry>
                </mxCell>
                <mxCell id="7JP3Tpvws_wbu3NbM8kd-66" value="과목" style="shape=table;startSize=30;container=1;collapsible=1;childLayout=tableLayout;fixedRows=1;rowLines=0;fontStyle=1;align=center;resizeLast=1;html=1;strokeColor=default;verticalAlign=middle;fontFamily=Helvetica;fontSize=12;fontColor=default;fillColor=default;" vertex="1" parent="1">
                    <mxGeometry x="280" y="1070" width="180" height="180" as="geometry"/>
                </mxCell>
                <mxCell id="7JP3Tpvws_wbu3NbM8kd-67" value="" style="shape=tableRow;horizontal=0;startSize=0;swimlaneHead=0;swimlaneBody=0;fillColor=none;collapsible=0;dropTarget=0;points=[[0,0.5],[1,0.5]];portConstraint=eastwest;top=0;left=0;right=0;bottom=1;strokeColor=default;align=center;verticalAlign=middle;fontFamily=Helvetica;fontSize=12;fontColor=default;" vertex="1" parent="7JP3Tpvws_wbu3NbM8kd-66">
                    <mxGeometry y="30" width="180" height="30" as="geometry"/>
                </mxCell>
                <mxCell id="7JP3Tpvws_wbu3NbM8kd-68" value="PK" style="shape=partialRectangle;connectable=0;fillColor=none;top=0;left=0;bottom=0;right=0;fontStyle=1;overflow=hidden;whiteSpace=wrap;html=1;strokeColor=default;align=center;verticalAlign=middle;fontFamily=Helvetica;fontSize=12;fontColor=default;" vertex="1" parent="7JP3Tpvws_wbu3NbM8kd-67">
                    <mxGeometry width="30" height="30" as="geometry">
                        <mxRectangle width="30" height="30" as="alternateBounds"/>
                    </mxGeometry>
                </mxCell>
                <mxCell id="7JP3Tpvws_wbu3NbM8kd-69" value="과목코드" style="shape=partialRectangle;connectable=0;fillColor=none;top=0;left=0;bottom=0;right=0;align=left;spacingLeft=6;fontStyle=5;overflow=hidden;whiteSpace=wrap;html=1;strokeColor=default;verticalAlign=middle;fontFamily=Helvetica;fontSize=12;fontColor=default;" vertex="1" parent="7JP3Tpvws_wbu3NbM8kd-67">
                    <mxGeometry x="30" width="150" height="30" as="geometry">
                        <mxRectangle width="150" height="30" as="alternateBounds"/>
                    </mxGeometry>
                </mxCell>
                <mxCell id="dH-0V8bDEoem_NQQHc41-59" value="" style="shape=tableRow;horizontal=0;startSize=0;swimlaneHead=0;swimlaneBody=0;fillColor=none;collapsible=0;dropTarget=0;points=[[0,0.5],[1,0.5]];portConstraint=eastwest;top=0;left=0;right=0;bottom=1;strokeColor=default;align=center;verticalAlign=middle;fontFamily=Helvetica;fontSize=12;fontColor=default;" vertex="1" parent="7JP3Tpvws_wbu3NbM8kd-66">
                    <mxGeometry y="60" width="180" height="30" as="geometry"/>
                </mxCell>
                <mxCell id="dH-0V8bDEoem_NQQHc41-60" value="FK" style="shape=partialRectangle;connectable=0;fillColor=none;top=0;left=0;bottom=0;right=0;fontStyle=1;overflow=hidden;whiteSpace=wrap;html=1;strokeColor=default;align=center;verticalAlign=middle;fontFamily=Helvetica;fontSize=12;fontColor=default;" vertex="1" parent="dH-0V8bDEoem_NQQHc41-59">
                    <mxGeometry width="30" height="30" as="geometry">
                        <mxRectangle width="30" height="30" as="alternateBounds"/>
                    </mxGeometry>
                </mxCell>
                <mxCell id="dH-0V8bDEoem_NQQHc41-61" value="교수코드" style="shape=partialRectangle;connectable=0;fillColor=none;top=0;left=0;bottom=0;right=0;align=left;spacingLeft=6;fontStyle=5;overflow=hidden;whiteSpace=wrap;html=1;strokeColor=default;verticalAlign=middle;fontFamily=Helvetica;fontSize=12;fontColor=default;" vertex="1" parent="dH-0V8bDEoem_NQQHc41-59">
                    <mxGeometry x="30" width="150" height="30" as="geometry">
                        <mxRectangle width="150" height="30" as="alternateBounds"/>
                    </mxGeometry>
                </mxCell>
                <mxCell id="7JP3Tpvws_wbu3NbM8kd-70" value="" style="shape=tableRow;horizontal=0;startSize=0;swimlaneHead=0;swimlaneBody=0;fillColor=none;collapsible=0;dropTarget=0;points=[[0,0.5],[1,0.5]];portConstraint=eastwest;top=0;left=0;right=0;bottom=0;strokeColor=default;align=center;verticalAlign=middle;fontFamily=Helvetica;fontSize=12;fontColor=default;" vertex="1" parent="7JP3Tpvws_wbu3NbM8kd-66">
                    <mxGeometry y="90" width="180" height="30" as="geometry"/>
                </mxCell>
                <mxCell id="7JP3Tpvws_wbu3NbM8kd-71" value="" style="shape=partialRectangle;connectable=0;fillColor=none;top=0;left=0;bottom=0;right=0;editable=1;overflow=hidden;whiteSpace=wrap;html=1;strokeColor=default;align=center;verticalAlign=middle;fontFamily=Helvetica;fontSize=12;fontColor=default;" vertex="1" parent="7JP3Tpvws_wbu3NbM8kd-70">
                    <mxGeometry width="30" height="30" as="geometry">
                        <mxRectangle width="30" height="30" as="alternateBounds"/>
                    </mxGeometry>
                </mxCell>
                <mxCell id="7JP3Tpvws_wbu3NbM8kd-72" value="과목명" style="shape=partialRectangle;connectable=0;fillColor=none;top=0;left=0;bottom=0;right=0;align=left;spacingLeft=6;overflow=hidden;whiteSpace=wrap;html=1;strokeColor=default;verticalAlign=middle;fontFamily=Helvetica;fontSize=12;fontColor=default;" vertex="1" parent="7JP3Tpvws_wbu3NbM8kd-70">
                    <mxGeometry x="30" width="150" height="30" as="geometry">
                        <mxRectangle width="150" height="30" as="alternateBounds"/>
                    </mxGeometry>
                </mxCell>
                <mxCell id="7JP3Tpvws_wbu3NbM8kd-73" value="" style="shape=tableRow;horizontal=0;startSize=0;swimlaneHead=0;swimlaneBody=0;fillColor=none;collapsible=0;dropTarget=0;points=[[0,0.5],[1,0.5]];portConstraint=eastwest;top=0;left=0;right=0;bottom=0;strokeColor=default;align=center;verticalAlign=middle;fontFamily=Helvetica;fontSize=12;fontColor=default;" vertex="1" parent="7JP3Tpvws_wbu3NbM8kd-66">
                    <mxGeometry y="120" width="180" height="30" as="geometry"/>
                </mxCell>
                <mxCell id="7JP3Tpvws_wbu3NbM8kd-74" value="" style="shape=partialRectangle;connectable=0;fillColor=none;top=0;left=0;bottom=0;right=0;editable=1;overflow=hidden;whiteSpace=wrap;html=1;strokeColor=default;align=center;verticalAlign=middle;fontFamily=Helvetica;fontSize=12;fontColor=default;" vertex="1" parent="7JP3Tpvws_wbu3NbM8kd-73">
                    <mxGeometry width="30" height="30" as="geometry">
                        <mxRectangle width="30" height="30" as="alternateBounds"/>
                    </mxGeometry>
                </mxCell>
                <mxCell id="7JP3Tpvws_wbu3NbM8kd-75" value="시작일" style="shape=partialRectangle;connectable=0;fillColor=none;top=0;left=0;bottom=0;right=0;align=left;spacingLeft=6;overflow=hidden;whiteSpace=wrap;html=1;strokeColor=default;verticalAlign=middle;fontFamily=Helvetica;fontSize=12;fontColor=default;" vertex="1" parent="7JP3Tpvws_wbu3NbM8kd-73">
                    <mxGeometry x="30" width="150" height="30" as="geometry">
                        <mxRectangle width="150" height="30" as="alternateBounds"/>
                    </mxGeometry>
                </mxCell>
                <mxCell id="7JP3Tpvws_wbu3NbM8kd-76" value="" style="shape=tableRow;horizontal=0;startSize=0;swimlaneHead=0;swimlaneBody=0;fillColor=none;collapsible=0;dropTarget=0;points=[[0,0.5],[1,0.5]];portConstraint=eastwest;top=0;left=0;right=0;bottom=0;strokeColor=default;align=center;verticalAlign=middle;fontFamily=Helvetica;fontSize=12;fontColor=default;" vertex="1" parent="7JP3Tpvws_wbu3NbM8kd-66">
                    <mxGeometry y="150" width="180" height="30" as="geometry"/>
                </mxCell>
                <mxCell id="7JP3Tpvws_wbu3NbM8kd-77" value="" style="shape=partialRectangle;connectable=0;fillColor=none;top=0;left=0;bottom=0;right=0;editable=1;overflow=hidden;whiteSpace=wrap;html=1;strokeColor=default;align=center;verticalAlign=middle;fontFamily=Helvetica;fontSize=12;fontColor=default;" vertex="1" parent="7JP3Tpvws_wbu3NbM8kd-76">
                    <mxGeometry width="30" height="30" as="geometry">
                        <mxRectangle width="30" height="30" as="alternateBounds"/>
                    </mxGeometry>
                </mxCell>
                <mxCell id="7JP3Tpvws_wbu3NbM8kd-78" value="종료일" style="shape=partialRectangle;connectable=0;fillColor=none;top=0;left=0;bottom=0;right=0;align=left;spacingLeft=6;overflow=hidden;whiteSpace=wrap;html=1;strokeColor=default;verticalAlign=middle;fontFamily=Helvetica;fontSize=12;fontColor=default;" vertex="1" parent="7JP3Tpvws_wbu3NbM8kd-76">
                    <mxGeometry x="30" width="150" height="30" as="geometry">
                        <mxRectangle width="150" height="30" as="alternateBounds"/>
                    </mxGeometry>
                </mxCell>
                <mxCell id="6cLOZFd0Xd2I3muPR_ag-1" value="수강" style="shape=table;startSize=30;container=1;collapsible=1;childLayout=tableLayout;fixedRows=1;rowLines=0;fontStyle=1;align=center;resizeLast=1;html=1;strokeColor=default;verticalAlign=middle;fontFamily=Helvetica;fontSize=12;fontColor=default;fillColor=default;" vertex="1" parent="1">
                    <mxGeometry x="570" y="870" width="140" height="180" as="geometry"/>
                </mxCell>
                <mxCell id="6cLOZFd0Xd2I3muPR_ag-2" value="" style="shape=tableRow;horizontal=0;startSize=0;swimlaneHead=0;swimlaneBody=0;fillColor=none;collapsible=0;dropTarget=0;points=[[0,0.5],[1,0.5]];portConstraint=eastwest;top=0;left=0;right=0;bottom=1;strokeColor=default;align=center;verticalAlign=middle;fontFamily=Helvetica;fontSize=12;fontColor=default;" vertex="1" parent="6cLOZFd0Xd2I3muPR_ag-1">
                    <mxGeometry y="30" width="140" height="30" as="geometry"/>
                </mxCell>
                <mxCell id="6cLOZFd0Xd2I3muPR_ag-3" value="PK" style="shape=partialRectangle;connectable=0;fillColor=none;top=0;left=0;bottom=0;right=0;fontStyle=1;overflow=hidden;whiteSpace=wrap;html=1;strokeColor=default;align=center;verticalAlign=middle;fontFamily=Helvetica;fontSize=12;fontColor=default;" vertex="1" parent="6cLOZFd0Xd2I3muPR_ag-2">
                    <mxGeometry width="30" height="30" as="geometry">
                        <mxRectangle width="30" height="30" as="alternateBounds"/>
                    </mxGeometry>
                </mxCell>
                <mxCell id="6cLOZFd0Xd2I3muPR_ag-4" value="수강번호" style="shape=partialRectangle;connectable=0;fillColor=none;top=0;left=0;bottom=0;right=0;align=left;spacingLeft=6;fontStyle=5;overflow=hidden;whiteSpace=wrap;html=1;strokeColor=default;verticalAlign=middle;fontFamily=Helvetica;fontSize=12;fontColor=default;" vertex="1" parent="6cLOZFd0Xd2I3muPR_ag-2">
                    <mxGeometry x="30" width="110" height="30" as="geometry">
                        <mxRectangle width="110" height="30" as="alternateBounds"/>
                    </mxGeometry>
                </mxCell>
                <mxCell id="dH-0V8bDEoem_NQQHc41-40" value="" style="shape=tableRow;horizontal=0;startSize=0;swimlaneHead=0;swimlaneBody=0;fillColor=none;collapsible=0;dropTarget=0;points=[[0,0.5],[1,0.5]];portConstraint=eastwest;top=0;left=0;right=0;bottom=1;strokeColor=default;align=center;verticalAlign=middle;fontFamily=Helvetica;fontSize=12;fontColor=default;" vertex="1" parent="6cLOZFd0Xd2I3muPR_ag-1">
                    <mxGeometry y="60" width="140" height="30" as="geometry"/>
                </mxCell>
                <mxCell id="dH-0V8bDEoem_NQQHc41-41" value="FK" style="shape=partialRectangle;connectable=0;fillColor=none;top=0;left=0;bottom=0;right=0;fontStyle=1;overflow=hidden;whiteSpace=wrap;html=1;strokeColor=default;align=center;verticalAlign=middle;fontFamily=Helvetica;fontSize=12;fontColor=default;" vertex="1" parent="dH-0V8bDEoem_NQQHc41-40">
                    <mxGeometry width="30" height="30" as="geometry">
                        <mxRectangle width="30" height="30" as="alternateBounds"/>
                    </mxGeometry>
                </mxCell>
                <mxCell id="dH-0V8bDEoem_NQQHc41-42" value="학번" style="shape=partialRectangle;connectable=0;fillColor=none;top=0;left=0;bottom=0;right=0;align=left;spacingLeft=6;fontStyle=5;overflow=hidden;whiteSpace=wrap;html=1;strokeColor=default;verticalAlign=middle;fontFamily=Helvetica;fontSize=12;fontColor=default;" vertex="1" parent="dH-0V8bDEoem_NQQHc41-40">
                    <mxGeometry x="30" width="110" height="30" as="geometry">
                        <mxRectangle width="110" height="30" as="alternateBounds"/>
                    </mxGeometry>
                </mxCell>
                <mxCell id="dH-0V8bDEoem_NQQHc41-62" value="" style="shape=tableRow;horizontal=0;startSize=0;swimlaneHead=0;swimlaneBody=0;fillColor=none;collapsible=0;dropTarget=0;points=[[0,0.5],[1,0.5]];portConstraint=eastwest;top=0;left=0;right=0;bottom=1;strokeColor=default;align=center;verticalAlign=middle;fontFamily=Helvetica;fontSize=12;fontColor=default;" vertex="1" parent="6cLOZFd0Xd2I3muPR_ag-1">
                    <mxGeometry y="90" width="140" height="30" as="geometry"/>
                </mxCell>
                <mxCell id="dH-0V8bDEoem_NQQHc41-63" value="FK" style="shape=partialRectangle;connectable=0;fillColor=none;top=0;left=0;bottom=0;right=0;fontStyle=1;overflow=hidden;whiteSpace=wrap;html=1;strokeColor=default;align=center;verticalAlign=middle;fontFamily=Helvetica;fontSize=12;fontColor=default;" vertex="1" parent="dH-0V8bDEoem_NQQHc41-62">
                    <mxGeometry width="30" height="30" as="geometry">
                        <mxRectangle width="30" height="30" as="alternateBounds"/>
                    </mxGeometry>
                </mxCell>
                <mxCell id="dH-0V8bDEoem_NQQHc41-64" value="과목코드" style="shape=partialRectangle;connectable=0;fillColor=none;top=0;left=0;bottom=0;right=0;align=left;spacingLeft=6;fontStyle=5;overflow=hidden;whiteSpace=wrap;html=1;strokeColor=default;verticalAlign=middle;fontFamily=Helvetica;fontSize=12;fontColor=default;" vertex="1" parent="dH-0V8bDEoem_NQQHc41-62">
                    <mxGeometry x="30" width="110" height="30" as="geometry">
                        <mxRectangle width="110" height="30" as="alternateBounds"/>
                    </mxGeometry>
                </mxCell>
                <mxCell id="6cLOZFd0Xd2I3muPR_ag-5" value="" style="shape=tableRow;horizontal=0;startSize=0;swimlaneHead=0;swimlaneBody=0;fillColor=none;collapsible=0;dropTarget=0;points=[[0,0.5],[1,0.5]];portConstraint=eastwest;top=0;left=0;right=0;bottom=0;strokeColor=default;align=center;verticalAlign=middle;fontFamily=Helvetica;fontSize=12;fontColor=default;" vertex="1" parent="6cLOZFd0Xd2I3muPR_ag-1">
                    <mxGeometry y="120" width="140" height="30" as="geometry"/>
                </mxCell>
                <mxCell id="6cLOZFd0Xd2I3muPR_ag-6" value="" style="shape=partialRectangle;connectable=0;fillColor=none;top=0;left=0;bottom=0;right=0;editable=1;overflow=hidden;whiteSpace=wrap;html=1;strokeColor=default;align=center;verticalAlign=middle;fontFamily=Helvetica;fontSize=12;fontColor=default;" vertex="1" parent="6cLOZFd0Xd2I3muPR_ag-5">
                    <mxGeometry width="30" height="30" as="geometry">
                        <mxRectangle width="30" height="30" as="alternateBounds"/>
                    </mxGeometry>
                </mxCell>
                <mxCell id="6cLOZFd0Xd2I3muPR_ag-7" value="수강일자" style="shape=partialRectangle;connectable=0;fillColor=none;top=0;left=0;bottom=0;right=0;align=left;spacingLeft=6;overflow=hidden;whiteSpace=wrap;html=1;strokeColor=default;verticalAlign=middle;fontFamily=Helvetica;fontSize=12;fontColor=default;" vertex="1" parent="6cLOZFd0Xd2I3muPR_ag-5">
                    <mxGeometry x="30" width="110" height="30" as="geometry">
                        <mxRectangle width="110" height="30" as="alternateBounds"/>
                    </mxGeometry>
                </mxCell>
                <mxCell id="dH-0V8bDEoem_NQQHc41-43" value="" style="shape=tableRow;horizontal=0;startSize=0;swimlaneHead=0;swimlaneBody=0;fillColor=none;collapsible=0;dropTarget=0;points=[[0,0.5],[1,0.5]];portConstraint=eastwest;top=0;left=0;right=0;bottom=0;strokeColor=default;align=center;verticalAlign=middle;fontFamily=Helvetica;fontSize=12;fontColor=default;" vertex="1" parent="6cLOZFd0Xd2I3muPR_ag-1">
                    <mxGeometry y="150" width="140" height="30" as="geometry"/>
                </mxCell>
                <mxCell id="dH-0V8bDEoem_NQQHc41-44" value="" style="shape=partialRectangle;connectable=0;fillColor=none;top=0;left=0;bottom=0;right=0;editable=1;overflow=hidden;whiteSpace=wrap;html=1;strokeColor=default;align=center;verticalAlign=middle;fontFamily=Helvetica;fontSize=12;fontColor=default;" vertex="1" parent="dH-0V8bDEoem_NQQHc41-43">
                    <mxGeometry width="30" height="30" as="geometry">
                        <mxRectangle width="30" height="30" as="alternateBounds"/>
                    </mxGeometry>
                </mxCell>
                <mxCell id="dH-0V8bDEoem_NQQHc41-45" value="학점" style="shape=partialRectangle;connectable=0;fillColor=none;top=0;left=0;bottom=0;right=0;align=left;spacingLeft=6;overflow=hidden;whiteSpace=wrap;html=1;strokeColor=default;verticalAlign=middle;fontFamily=Helvetica;fontSize=12;fontColor=default;" vertex="1" parent="dH-0V8bDEoem_NQQHc41-43">
                    <mxGeometry x="30" width="110" height="30" as="geometry">
                        <mxRectangle width="110" height="30" as="alternateBounds"/>
                    </mxGeometry>
                </mxCell>
                <mxCell id="dH-0V8bDEoem_NQQHc41-4" style="edgeStyle=none;html=1;entryX=0.5;entryY=0;entryDx=0;entryDy=0;fontFamily=Helvetica;fontSize=12;fontColor=default;endArrow=none;endFill=0;exitX=0;exitY=1;exitDx=0;exitDy=0;" edge="1" parent="1" source="pyoixG63xmRaE33dkl7y-13" target="pyoixG63xmRaE33dkl7y-16">
                    <mxGeometry relative="1" as="geometry">
                        <mxPoint x="200" y="710" as="sourcePoint"/>
                    </mxGeometry>
                </mxCell>
                <mxCell id="dH-0V8bDEoem_NQQHc41-6" style="edgeStyle=none;html=1;entryX=0.5;entryY=0;entryDx=0;entryDy=0;fontFamily=Helvetica;fontSize=12;fontColor=default;exitX=0;exitY=1;exitDx=0;exitDy=0;endArrow=none;endFill=0;" edge="1" parent="1" source="pyoixG63xmRaE33dkl7y-13" target="pyoixG63xmRaE33dkl7y-17">
                    <mxGeometry relative="1" as="geometry">
                        <mxPoint x="210" y="700" as="sourcePoint"/>
                    </mxGeometry>
                </mxCell>
                <mxCell id="dH-0V8bDEoem_NQQHc41-7" value="수강번호" style="ellipse;whiteSpace=wrap;html=1;align=center;fontStyle=4;strokeColor=default;verticalAlign=middle;fontFamily=Helvetica;fontSize=12;fontColor=default;fillColor=default;" vertex="1" parent="1">
                    <mxGeometry x="-40" y="350" width="100" height="40" as="geometry"/>
                </mxCell>
                <mxCell id="dH-0V8bDEoem_NQQHc41-12" value="학생" style="shape=table;startSize=30;container=1;collapsible=1;childLayout=tableLayout;fixedRows=1;rowLines=0;fontStyle=1;align=center;resizeLast=1;html=1;whiteSpace=wrap;strokeColor=default;verticalAlign=middle;fontFamily=Helvetica;fontSize=12;fontColor=default;fillColor=default;" vertex="1" parent="1">
                    <mxGeometry x="270" y="760" width="180" height="150" as="geometry"/>
                </mxCell>
                <mxCell id="dH-0V8bDEoem_NQQHc41-13" value="" style="shape=tableRow;horizontal=0;startSize=0;swimlaneHead=0;swimlaneBody=0;fillColor=none;collapsible=0;dropTarget=0;points=[[0,0.5],[1,0.5]];portConstraint=eastwest;top=0;left=0;right=0;bottom=0;html=1;strokeColor=default;align=center;verticalAlign=middle;fontFamily=Helvetica;fontSize=12;fontColor=default;" vertex="1" parent="dH-0V8bDEoem_NQQHc41-12">
                    <mxGeometry y="30" width="180" height="30" as="geometry"/>
                </mxCell>
                <mxCell id="dH-0V8bDEoem_NQQHc41-14" value="PK" style="shape=partialRectangle;connectable=0;fillColor=none;top=0;left=0;bottom=0;right=0;fontStyle=1;overflow=hidden;html=1;whiteSpace=wrap;strokeColor=default;align=center;verticalAlign=middle;fontFamily=Helvetica;fontSize=12;fontColor=default;" vertex="1" parent="dH-0V8bDEoem_NQQHc41-13">
                    <mxGeometry width="60" height="30" as="geometry">
                        <mxRectangle width="60" height="30" as="alternateBounds"/>
                    </mxGeometry>
                </mxCell>
                <mxCell id="dH-0V8bDEoem_NQQHc41-15" value="학번" style="shape=partialRectangle;connectable=0;fillColor=none;top=0;left=0;bottom=0;right=0;align=left;spacingLeft=6;fontStyle=5;overflow=hidden;html=1;whiteSpace=wrap;strokeColor=default;verticalAlign=middle;fontFamily=Helvetica;fontSize=12;fontColor=default;" vertex="1" parent="dH-0V8bDEoem_NQQHc41-13">
                    <mxGeometry x="60" width="120" height="30" as="geometry">
                        <mxRectangle width="120" height="30" as="alternateBounds"/>
                    </mxGeometry>
                </mxCell>
                <mxCell id="dH-0V8bDEoem_NQQHc41-16" value="" style="shape=tableRow;horizontal=0;startSize=0;swimlaneHead=0;swimlaneBody=0;fillColor=none;collapsible=0;dropTarget=0;points=[[0,0.5],[1,0.5]];portConstraint=eastwest;top=0;left=0;right=0;bottom=1;html=1;strokeColor=default;align=center;verticalAlign=middle;fontFamily=Helvetica;fontSize=12;fontColor=default;" vertex="1" parent="dH-0V8bDEoem_NQQHc41-12">
                    <mxGeometry y="60" width="180" height="30" as="geometry"/>
                </mxCell>
                <mxCell id="dH-0V8bDEoem_NQQHc41-17" value="FK" style="shape=partialRectangle;connectable=0;fillColor=none;top=0;left=0;bottom=0;right=0;fontStyle=1;overflow=hidden;html=1;whiteSpace=wrap;strokeColor=default;align=center;verticalAlign=middle;fontFamily=Helvetica;fontSize=12;fontColor=default;" vertex="1" parent="dH-0V8bDEoem_NQQHc41-16">
                    <mxGeometry width="60" height="30" as="geometry">
                        <mxRectangle width="60" height="30" as="alternateBounds"/>
                    </mxGeometry>
                </mxCell>
                <mxCell id="dH-0V8bDEoem_NQQHc41-18" value="학과코드" style="shape=partialRectangle;connectable=0;fillColor=none;top=0;left=0;bottom=0;right=0;align=left;spacingLeft=6;fontStyle=5;overflow=hidden;html=1;whiteSpace=wrap;strokeColor=default;verticalAlign=middle;fontFamily=Helvetica;fontSize=12;fontColor=default;" vertex="1" parent="dH-0V8bDEoem_NQQHc41-16">
                    <mxGeometry x="60" width="120" height="30" as="geometry">
                        <mxRectangle width="120" height="30" as="alternateBounds"/>
                    </mxGeometry>
                </mxCell>
                <mxCell id="dH-0V8bDEoem_NQQHc41-19" value="" style="shape=tableRow;horizontal=0;startSize=0;swimlaneHead=0;swimlaneBody=0;fillColor=none;collapsible=0;dropTarget=0;points=[[0,0.5],[1,0.5]];portConstraint=eastwest;top=0;left=0;right=0;bottom=0;html=1;strokeColor=default;align=center;verticalAlign=middle;fontFamily=Helvetica;fontSize=12;fontColor=default;" vertex="1" parent="dH-0V8bDEoem_NQQHc41-12">
                    <mxGeometry y="90" width="180" height="30" as="geometry"/>
                </mxCell>
                <mxCell id="dH-0V8bDEoem_NQQHc41-20" value="" style="shape=partialRectangle;connectable=0;fillColor=none;top=0;left=0;bottom=0;right=0;editable=1;overflow=hidden;html=1;whiteSpace=wrap;strokeColor=default;align=center;verticalAlign=middle;fontFamily=Helvetica;fontSize=12;fontColor=default;" vertex="1" parent="dH-0V8bDEoem_NQQHc41-19">
                    <mxGeometry width="60" height="30" as="geometry">
                        <mxRectangle width="60" height="30" as="alternateBounds"/>
                    </mxGeometry>
                </mxCell>
                <mxCell id="dH-0V8bDEoem_NQQHc41-21" value="이름" style="shape=partialRectangle;connectable=0;fillColor=none;top=0;left=0;bottom=0;right=0;align=left;spacingLeft=6;overflow=hidden;html=1;whiteSpace=wrap;strokeColor=default;verticalAlign=middle;fontFamily=Helvetica;fontSize=12;fontColor=default;" vertex="1" parent="dH-0V8bDEoem_NQQHc41-19">
                    <mxGeometry x="60" width="120" height="30" as="geometry">
                        <mxRectangle width="120" height="30" as="alternateBounds"/>
                    </mxGeometry>
                </mxCell>
                <mxCell id="dH-0V8bDEoem_NQQHc41-22" value="" style="shape=tableRow;horizontal=0;startSize=0;swimlaneHead=0;swimlaneBody=0;fillColor=none;collapsible=0;dropTarget=0;points=[[0,0.5],[1,0.5]];portConstraint=eastwest;top=0;left=0;right=0;bottom=0;html=1;strokeColor=default;align=center;verticalAlign=middle;fontFamily=Helvetica;fontSize=12;fontColor=default;" vertex="1" parent="dH-0V8bDEoem_NQQHc41-12">
                    <mxGeometry y="120" width="180" height="30" as="geometry"/>
                </mxCell>
                <mxCell id="dH-0V8bDEoem_NQQHc41-23" value="" style="shape=partialRectangle;connectable=0;fillColor=none;top=0;left=0;bottom=0;right=0;editable=1;overflow=hidden;html=1;whiteSpace=wrap;strokeColor=default;align=center;verticalAlign=middle;fontFamily=Helvetica;fontSize=12;fontColor=default;" vertex="1" parent="dH-0V8bDEoem_NQQHc41-22">
                    <mxGeometry width="60" height="30" as="geometry">
                        <mxRectangle width="60" height="30" as="alternateBounds"/>
                    </mxGeometry>
                </mxCell>
                <mxCell id="dH-0V8bDEoem_NQQHc41-24" value="키" style="shape=partialRectangle;connectable=0;fillColor=none;top=0;left=0;bottom=0;right=0;align=left;spacingLeft=6;overflow=hidden;html=1;whiteSpace=wrap;strokeColor=default;verticalAlign=middle;fontFamily=Helvetica;fontSize=12;fontColor=default;" vertex="1" parent="dH-0V8bDEoem_NQQHc41-22">
                    <mxGeometry x="60" width="120" height="30" as="geometry">
                        <mxRectangle width="120" height="30" as="alternateBounds"/>
                    </mxGeometry>
                </mxCell>
                <mxCell id="dH-0V8bDEoem_NQQHc41-25" value="학과" style="shape=table;startSize=30;container=1;collapsible=1;childLayout=tableLayout;fixedRows=1;rowLines=0;fontStyle=1;align=center;resizeLast=1;html=1;whiteSpace=wrap;strokeColor=default;verticalAlign=middle;fontFamily=Helvetica;fontSize=12;fontColor=default;fillColor=default;" vertex="1" parent="1">
                    <mxGeometry x="910" y="790" width="180" height="90" as="geometry"/>
                </mxCell>
                <mxCell id="dH-0V8bDEoem_NQQHc41-26" value="" style="shape=tableRow;horizontal=0;startSize=0;swimlaneHead=0;swimlaneBody=0;fillColor=none;collapsible=0;dropTarget=0;points=[[0,0.5],[1,0.5]];portConstraint=eastwest;top=0;left=0;right=0;bottom=0;html=1;strokeColor=default;align=center;verticalAlign=middle;fontFamily=Helvetica;fontSize=12;fontColor=default;" vertex="1" parent="dH-0V8bDEoem_NQQHc41-25">
                    <mxGeometry y="30" width="180" height="30" as="geometry"/>
                </mxCell>
                <mxCell id="dH-0V8bDEoem_NQQHc41-27" value="PK" style="shape=partialRectangle;connectable=0;fillColor=none;top=0;left=0;bottom=0;right=0;fontStyle=1;overflow=hidden;html=1;whiteSpace=wrap;strokeColor=default;align=center;verticalAlign=middle;fontFamily=Helvetica;fontSize=12;fontColor=default;" vertex="1" parent="dH-0V8bDEoem_NQQHc41-26">
                    <mxGeometry width="60" height="30" as="geometry">
                        <mxRectangle width="60" height="30" as="alternateBounds"/>
                    </mxGeometry>
                </mxCell>
                <mxCell id="dH-0V8bDEoem_NQQHc41-28" value="학과코드" style="shape=partialRectangle;connectable=0;fillColor=none;top=0;left=0;bottom=0;right=0;align=left;spacingLeft=6;fontStyle=5;overflow=hidden;html=1;whiteSpace=wrap;strokeColor=default;verticalAlign=middle;fontFamily=Helvetica;fontSize=12;fontColor=default;" vertex="1" parent="dH-0V8bDEoem_NQQHc41-26">
                    <mxGeometry x="60" width="120" height="30" as="geometry">
                        <mxRectangle width="120" height="30" as="alternateBounds"/>
                    </mxGeometry>
                </mxCell>
                <mxCell id="dH-0V8bDEoem_NQQHc41-32" value="" style="shape=tableRow;horizontal=0;startSize=0;swimlaneHead=0;swimlaneBody=0;fillColor=none;collapsible=0;dropTarget=0;points=[[0,0.5],[1,0.5]];portConstraint=eastwest;top=0;left=0;right=0;bottom=0;html=1;strokeColor=default;align=center;verticalAlign=middle;fontFamily=Helvetica;fontSize=12;fontColor=default;" vertex="1" parent="dH-0V8bDEoem_NQQHc41-25">
                    <mxGeometry y="60" width="180" height="30" as="geometry"/>
                </mxCell>
                <mxCell id="dH-0V8bDEoem_NQQHc41-33" value="" style="shape=partialRectangle;connectable=0;fillColor=none;top=0;left=0;bottom=0;right=0;editable=1;overflow=hidden;html=1;whiteSpace=wrap;strokeColor=default;align=center;verticalAlign=middle;fontFamily=Helvetica;fontSize=12;fontColor=default;" vertex="1" parent="dH-0V8bDEoem_NQQHc41-32">
                    <mxGeometry width="60" height="30" as="geometry">
                        <mxRectangle width="60" height="30" as="alternateBounds"/>
                    </mxGeometry>
                </mxCell>
                <mxCell id="dH-0V8bDEoem_NQQHc41-34" value="학과명" style="shape=partialRectangle;connectable=0;fillColor=none;top=0;left=0;bottom=0;right=0;align=left;spacingLeft=6;overflow=hidden;html=1;whiteSpace=wrap;strokeColor=default;verticalAlign=middle;fontFamily=Helvetica;fontSize=12;fontColor=default;" vertex="1" parent="dH-0V8bDEoem_NQQHc41-32">
                    <mxGeometry x="60" width="120" height="30" as="geometry">
                        <mxRectangle width="120" height="30" as="alternateBounds"/>
                    </mxGeometry>
                </mxCell>
                <mxCell id="dH-0V8bDEoem_NQQHc41-38" value="N" style="text;html=1;align=center;verticalAlign=middle;whiteSpace=wrap;rounded=0;fontFamily=Helvetica;fontSize=12;fontColor=default;" vertex="1" parent="1">
                    <mxGeometry x="210" y="480" width="20" height="30" as="geometry"/>
                </mxCell>
                <mxCell id="dH-0V8bDEoem_NQQHc41-39" value="M" style="text;html=1;align=center;verticalAlign=middle;whiteSpace=wrap;rounded=0;fontFamily=Helvetica;fontSize=12;fontColor=default;" vertex="1" parent="1">
                    <mxGeometry x="210" y="290" width="20" height="30" as="geometry"/>
                </mxCell>
                <mxCell id="dH-0V8bDEoem_NQQHc41-66" value="" style="edgeStyle=entityRelationEdgeStyle;fontSize=12;html=1;endArrow=ERoneToMany;fontFamily=Helvetica;fontColor=default;entryX=1;entryY=0.5;entryDx=0;entryDy=0;exitX=0;exitY=0.5;exitDx=0;exitDy=0;" edge="1" parent="1" source="dH-0V8bDEoem_NQQHc41-26" target="dH-0V8bDEoem_NQQHc41-16">
                    <mxGeometry width="100" height="100" relative="1" as="geometry">
                        <mxPoint x="890" y="805" as="sourcePoint"/>
                        <mxPoint x="500" y="800" as="targetPoint"/>
                    </mxGeometry>
                </mxCell>
                <mxCell id="dH-0V8bDEoem_NQQHc41-67" value="" style="edgeStyle=entityRelationEdgeStyle;fontSize=12;html=1;endArrow=ERoneToMany;fontFamily=Helvetica;fontColor=default;entryX=1;entryY=0.5;entryDx=0;entryDy=0;exitX=0.006;exitY=0.3;exitDx=0;exitDy=0;exitPerimeter=0;" edge="1" parent="1" source="7JP3Tpvws_wbu3NbM8kd-51" target="dH-0V8bDEoem_NQQHc41-59">
                    <mxGeometry width="100" height="100" relative="1" as="geometry">
                        <mxPoint x="870" y="1150" as="sourcePoint"/>
                        <mxPoint x="500" y="1170" as="targetPoint"/>
                        <Array as="points">
                            <mxPoint x="470" y="1150"/>
                        </Array>
                    </mxGeometry>
                </mxCell>
                <mxCell id="dH-0V8bDEoem_NQQHc41-68" value="" style="edgeStyle=entityRelationEdgeStyle;fontSize=12;html=1;endArrow=ERoneToMany;fontFamily=Helvetica;fontColor=default;entryX=1;entryY=0.5;entryDx=0;entryDy=0;" edge="1" parent="1" target="7JP3Tpvws_wbu3NbM8kd-63">
                    <mxGeometry width="100" height="100" relative="1" as="geometry">
                        <mxPoint x="1090" y="830" as="sourcePoint"/>
                        <mxPoint x="840" y="960" as="targetPoint"/>
                    </mxGeometry>
                </mxCell>
                <mxCell id="dH-0V8bDEoem_NQQHc41-70" value="" style="edgeStyle=entityRelationEdgeStyle;fontSize=12;html=1;endArrow=ERoneToMany;fontFamily=Helvetica;fontColor=default;entryX=0;entryY=0.5;entryDx=0;entryDy=0;" edge="1" parent="1" target="dH-0V8bDEoem_NQQHc41-40">
                    <mxGeometry width="100" height="100" relative="1" as="geometry">
                        <mxPoint x="450" y="810" as="sourcePoint"/>
                        <mxPoint x="510" y="990" as="targetPoint"/>
                    </mxGeometry>
                </mxCell>
                <mxCell id="dH-0V8bDEoem_NQQHc41-71" value="" style="edgeStyle=entityRelationEdgeStyle;fontSize=12;html=1;endArrow=ERoneToMany;fontFamily=Helvetica;fontColor=default;entryX=0;entryY=0.5;entryDx=0;entryDy=0;exitX=1;exitY=0.5;exitDx=0;exitDy=0;" edge="1" parent="1" source="7JP3Tpvws_wbu3NbM8kd-67" target="dH-0V8bDEoem_NQQHc41-62">
                    <mxGeometry width="100" height="100" relative="1" as="geometry">
                        <mxPoint x="810" y="860" as="sourcePoint"/>
                        <mxPoint x="930" y="1025" as="targetPoint"/>
                    </mxGeometry>
                </mxCell>
            </root>
        </mxGraphModel>
    </diagram>
</mxfile>